<svg width="149" height="58" viewBox="0 0 149 58" fill="none" xmlns="http://www.w3.org/2000/svg">
<path d="M0 28.9262C0 12.9504 12.9509 -0.000488281 28.9266 -0.000488281L28.9266 57.8528C12.9509 57.8528 0 44.9019 0 28.9262Z" fill="#BE46D1"/>
<path fill-rule="evenodd" clip-rule="evenodd" d="M43.3906 53.9829V3.86985C39.1358 1.40847 34.1958 -0.000270844 28.9269 -0.000270844L28.9269 57.853C34.1958 57.853 39.1358 56.4443 43.3906 53.9829Z" fill="#BE46D1"/>
<path fill-rule="evenodd" clip-rule="evenodd" d="M43.3906 53.9827V3.86963C34.7447 8.87124 28.9277 18.2194 28.9277 28.9262C28.9277 39.6329 34.7447 48.9811 43.3906 53.9827Z" fill="#0077C8"/>
<path d="M62.2188 28.9262C62.2188 12.9504 75.1697 -0.000488281 91.1454 -0.000488281V57.8528C75.1697 57.8528 62.2188 44.9019 62.2188 28.9262Z" fill="#E3C11B"/>
<path fill-rule="evenodd" clip-rule="evenodd" d="M105.609 53.9832C101.355 56.4444 96.4149 57.853 91.1461 57.853V-0.000270844C96.4149 -0.000270844 101.355 1.40837 105.609 3.86959V53.9832Z" fill="#E3C11B"/>
<path fill-rule="evenodd" clip-rule="evenodd" d="M105.609 53.9824V3.86963C96.9726 8.86604 91.1589 18.1998 91.1467 28.8925V28.9596C91.1589 39.6523 96.9726 48.986 105.609 53.9824Z" fill="#D48028"/>
<path d="M86.7803 28.9262C86.7803 12.9504 73.8294 -0.000488281 57.8536 -0.000488281V57.8528C73.8294 57.8528 86.7803 44.9019 86.7803 28.9262Z" fill="#0077C8"/>
<path fill-rule="evenodd" clip-rule="evenodd" d="M43.3906 53.9829V3.86985C47.6454 1.40847 52.5854 -0.000270844 57.8544 -0.000270844V57.853C52.5854 57.853 47.6454 56.4443 43.3906 53.9829Z" fill="#0077C8"/>
<path fill-rule="evenodd" clip-rule="evenodd" d="M43.3906 53.9827V3.86963C52.0073 8.8543 57.8141 18.1561 57.8533 28.8174V29.035C57.8141 39.6962 52.0073 48.998 43.3906 53.9827Z" fill="#BE46D1"/>
<path d="M148.998 28.9262C148.998 12.9504 136.047 -0.000488281 120.071 -0.000488281V57.8528C136.047 57.8528 148.998 44.9019 148.998 28.9262Z" fill="#BF3B09"/>
<path fill-rule="evenodd" clip-rule="evenodd" d="M105.609 53.9834C109.864 56.4445 114.804 57.853 120.072 57.853V-0.000270844C114.804 -0.000270844 109.864 1.4083 105.609 3.8694V53.9834Z" fill="#BF3B09"/>
<path fill-rule="evenodd" clip-rule="evenodd" d="M105.609 53.9832V3.86963C114.234 8.8587 120.044 18.1728 120.073 28.8462V29.0066C120.044 39.68 114.234 48.9941 105.609 53.9832Z" fill="#292929"/>
</svg>
