<svg width="102" height="85" viewBox="0 0 102 85" fill="none" xmlns="http://www.w3.org/2000/svg">
<path d="M33.2323 70.3342C33.1971 70.8942 32.3611 73.7814 32.3611 73.7814L10.2381 73.7814L9.40471 70.3342L33.2323 70.3342Z" fill="#3DBBE3"/>
<path d="M23.9839 10.0187C28.3401 15.1815 30.4375 20.576 30.4375 20.576L11.7249 20.5761L15.4986 13.7886L18.2726 10.2445L21.2628 7.11566L23.9839 10.0187Z" fill="#3DBBE3"/>
<path d="M39.0657 26.3547L33.0107 26.6161L33.4767 28.4375L34.4721 31.4026L36.1876 31.1272L39.0657 26.3547Z" fill="#0077C8"/>
<path d="M51.7167 52.3595L49.7854 55.473L49.0527 58.0038L52.3828 59.7021L54.081 60.2016L55.4463 54.9901L53.5316 54.0078L51.7167 52.3595Z" fill="#0077C8"/>
<path d="M70.8277 50.1607C70.8277 50.1607 69.588 40.7361 67.9936 32.9925C65.6811 23.3625 60.9514 11.4959 56.2889 10.9303C44.8938 9.54808 30.7559 42.9429 30.7559 42.9429C30.7559 42.9429 40.2354 41.7214 52.0941 43.8645C58.036 44.9383 63.1435 52.5408 70.8277 50.1607Z" fill="#0077C8"/>
<path d="M70.8199 49.5695C71.1847 47.3162 62.4946 44.0348 51.41 42.2403C40.3254 40.4459 31.0438 40.8178 30.6791 43.0711C30.3143 45.3245 39.0044 48.6058 50.089 50.4003C61.1736 52.1948 70.4551 51.8228 70.8199 49.5695Z" fill="#1F0744" stroke="#1F0744" stroke-miterlimit="10" stroke-linecap="round" stroke-linejoin="round"/>
<path d="M45.0848 52.148C43.3655 49.0665 43.5401 46.0354 43.5401 46.0354C43.5401 46.0354 46.2879 45.2631 48.5932 46.8814" fill="#0077C8"/>
<path d="M45.0848 52.148C43.3655 49.0665 43.5401 46.0354 43.5401 46.0354C43.5401 46.0354 46.2879 45.2631 48.5932 46.8814" stroke="#1F0744" stroke-miterlimit="10" stroke-linecap="round" stroke-linejoin="round"/>
<path d="M9.96707 27.2653C11.7615 27.639 13.3093 29.261 12.812 30.8307C12.4532 31.9668 10.9652 33.2001 8.72216 32.1761C6.9763 31.3539 6.51273 30.1916 6.4903 29.2386C6.46039 28.0763 7.07724 26.9252 8.07167 26.3272C8.70347 25.946 9.58201 25.7816 10.5241 26.103C12.6214 26.8131 13.2008 28.222 12.827 29.2573" fill="#0077C8"/>
<path d="M45.6115 64.6952C47.4605 55.4144 53.1613 48.4357 53.1613 48.4357C51.9236 45.4971 48.5294 46.0841 48.5294 46.0841C48.5294 46.0841 43.1587 51.786 39.9258 62.5341C39.9258 62.5341 42.1676 62.2369 43.4615 63.2584C45.1844 63.8396 45.6115 64.6952 45.6115 64.6952Z" fill="#0077C8"/>
<path d="M73.6042 44.022C74.332 44.6606 75.296 44.769 76.3877 44.3665C77.0342 44.1304 77.3671 43.6698 77.5336 43.1861L77.4678 43.3486C79.4345 43.5266 80.1545 42.6675 80.41 41.878L80.3829 41.9631C81.2153 41.9631 82.0941 41.5954 82.3148 40.2796C82.4851 39.2462 82.3225 38.182 81.8773 37.2299C80.8127 34.9426 79.3454 35.3451 79.3454 35.3451C79.3454 35.3451 78.3294 32.6442 76.1072 29.223C74.4425 26.6648 71.3665 25.6078 68.6217 26.943C66.4305 28.0073 64.5181 30.0082 63.2715 31.773L66.6822 34.3544C66.6822 34.3544 68.0526 32.3961 69.5818 31.4827C70.5613 30.8983 71.8117 31.1421 72.5202 32.0361C73.9178 33.7971 74.1401 37.0005 74.1401 37.0005C74.1401 37.0005 74.4791 36.6958 73.2906 36.7616C71.9782 36.8351 70.8479 38.0627 71.0957 39.3515C71.1886 39.8314 71.2912 40.0306 71.2912 40.0306C71.2912 40.0306 71.7614 40.8524 72.2879 41.2897C72.2879 41.2897 73.3802 38.5282 74.2042 39.1418C74.4559 39.7095 74.4559 40.2796 74.2042 40.5759C72.9344 41.2687 73.6042 44.022 73.6042 44.022Z" fill="#0077C8"/>
<path d="M7.8156 31.8889C5.02514 42.911 4.57494 57.6007 10.8855 75.9076H31.7072" stroke="#1F0744" stroke-miterlimit="10" stroke-linecap="round" stroke-linejoin="round"/>
<path d="M11.2071 22.136C10.687 23.2887 10.1864 24.5112 9.70898 25.7958" stroke="#1F0744" stroke-miterlimit="10" stroke-linecap="round" stroke-linejoin="round"/>
<path d="M30.5889 20.4711C26.281 11.6766 21.2977 7.2251 21.2977 7.2251C21.2977 7.2251 14.9173 12.5926 11.207 22.136" stroke="#1F0744" stroke-miterlimit="10" stroke-linecap="round" stroke-linejoin="round"/>
<path d="M21.0304 45.2512C24.9207 45.2512 28.0745 42.0975 28.0745 38.2072C28.0745 34.3168 24.9207 31.1631 21.0304 31.1631C17.1401 31.1631 13.9863 34.3168 13.9863 38.2072C13.9863 42.0975 17.1401 45.2512 21.0304 45.2512Z" fill="#3DBBE3" stroke="#1F0744" stroke-miterlimit="10" stroke-linecap="round" stroke-linejoin="round"/>
<path d="M11.8789 20.5138H30.5738" stroke="#1F0744" stroke-miterlimit="10" stroke-linecap="round" stroke-linejoin="round"/>
<path d="M9.14258 70.3384H33.2981" stroke="#1F0744" stroke-miterlimit="10" stroke-linecap="round" stroke-linejoin="round"/>
<path d="M10.3223 73.9631H32.3044" stroke="#1F0744" stroke-miterlimit="10" stroke-linecap="round" stroke-linejoin="round"/>
<path d="M66.6476 27.8646C64.288 19.3923 60.861 11.475 56.2193 10.9239C44.8751 9.57714 30.7559 42.8298 30.7559 42.8298" stroke="#1F0744" stroke-miterlimit="10" stroke-linecap="round" stroke-linejoin="round"/>
<path d="M70.8274 49.3537C70.8274 49.3537 69.5932 40.1712 68.0059 32.6265" stroke="#1F0744" stroke-miterlimit="10" stroke-linecap="round" stroke-linejoin="round"/>
<path d="M54.2789 11.0131C54.2789 11.0131 53.4755 18.4336 61.7344 20.1413C61.7344 20.1413 62.5067 22.8386 65.2273 23.1995C67.9479 23.5604 68.4136 16.0739 63.9349 15.1192C63.9349 15.1192 64.1949 14.9251 64.4278 14.4439C65.1303 13.0002 64.3657 11.3119 62.8831 10.6987C59.7938 9.42185 55.2608 10.4309 55.2608 10.4309C54.3216 7.45804 48.6825 1.84607 46.3694 4.17469C44.0563 6.50719 49.2452 10.1398 49.2452 10.1398C47.5764 11.5603 49.1094 13.8113 49.1443 13.7841C49.1443 13.7841 51.469 11.6767 54.2789 11.0131Z" fill="#1F0744" stroke="#1F0744" stroke-miterlimit="10" stroke-linecap="round" stroke-linejoin="round"/>
<path d="M57.3524 8.309C57.7832 7.56281 57.8752 6.80933 57.5578 6.62607C57.2403 6.44281 56.6338 6.89915 56.2029 7.64535C55.7721 8.39155 55.6802 9.14502 55.9976 9.32829C56.315 9.51155 56.9216 9.0552 57.3524 8.309Z" fill="#1F0744" stroke="#1F0744" stroke-miterlimit="10" stroke-linecap="round" stroke-linejoin="round"/>
<path d="M52.5246 30.0299C55.0838 30.0299 57.1585 27.9552 57.1585 25.3959C57.1585 22.8367 55.0838 20.762 52.5246 20.762C49.9653 20.762 47.8906 22.8367 47.8906 25.3959C47.8906 27.9552 49.9653 30.0299 52.5246 30.0299Z" fill="white" stroke="#1F0744" stroke-miterlimit="10" stroke-linecap="round" stroke-linejoin="round"/>
<path d="M49.9512 29.25C47.8244 27.8296 47.25 24.9537 48.6705 22.823C50.0909 20.6962 52.9668 20.1218 55.0975 21.5423L49.9512 29.25Z" fill="#1F0744"/>
<path d="M43.6994 27.1348C46.2586 27.1348 48.3333 25.0602 48.3333 22.5009C48.3333 19.9416 46.2586 17.8669 43.6994 17.8669C41.1401 17.8669 39.0654 19.9416 39.0654 22.5009C39.0654 25.0602 41.1401 27.1348 43.6994 27.1348Z" fill="white" stroke="#1F0744" stroke-miterlimit="10" stroke-linecap="round" stroke-linejoin="round"/>
<path d="M41.126 26.3549C38.9992 24.9344 38.4248 22.0586 39.8453 19.9279C41.2657 17.8011 44.1416 17.2267 46.2723 18.6472L41.126 26.3549Z" fill="#1F0744"/>
<path d="M39.8916 62.4986C43.237 51.5541 48.7947 45.7442 48.7947 45.7442C48.7947 45.7442 52.3031 45.1504 53.5878 48.1388C53.5878 48.1388 47.6886 55.245 45.7752 64.6953" stroke="#1F0744" stroke-miterlimit="10" stroke-linecap="round" stroke-linejoin="round"/>
<path d="M46.0709 63.9464C45.8574 64.4664 45.8496 64.6954 45.8496 64.6954L43.2688 63.275L39.9932 62.5065L40.0785 62.231L46.2183 63.2245L46.0709 63.9464Z" fill="#1F0744"/>
<path d="M48.3486 57.2593C49.6682 58.4624 51.7484 59.6345 54.0887 60.3059" stroke="#1F0744" stroke-miterlimit="10" stroke-linecap="round" stroke-linejoin="round"/>
<path d="M51.2939 51.6317C51.2939 51.6317 52.9162 54.558 56.1297 55.1285" stroke="#1F0744" stroke-miterlimit="10" stroke-linecap="round" stroke-linejoin="round"/>
<path d="M63.0651 53.7235C59.4364 52.858 56.0327 53.2888 54.3561 59.0715C52.7649 65.0444 55.9085 68.5995 57.8141 70.1364C58.5437 70.7263 59.0909 71.0173 59.122 71.0368L63.0651 53.7235Z" stroke="#1F0744" stroke-miterlimit="10" stroke-linecap="round" stroke-linejoin="round"/>
<path d="M61.6484 53.5605L57.8838 70.0743" stroke="#1F0744" stroke-miterlimit="10" stroke-linecap="round" stroke-linejoin="round"/>
<path d="M53.9326 61.7223L56.2302 60.2592" stroke="#1F0744" stroke-miterlimit="10" stroke-linecap="round" stroke-linejoin="round"/>
<path d="M54.0645 63.3952L56.2301 62.1067" stroke="#1F0744" stroke-miterlimit="10" stroke-linecap="round" stroke-linejoin="round"/>
<path d="M54.9426 54.7441C55.4199 55.0391 56.0137 55.1982 56.0137 55.1982L54.865 57.4919L53.9219 60.2591L54.3333 57.8684C54.4225 57.2823 54.9426 54.7441 54.9426 54.7441Z" fill="#1F0744"/>
<path d="M51.2943 51.8065C51.7717 52.1015 51.7523 52.4818 51.7523 52.4818L49.6837 58.3189L48.3486 57.2633L49.4329 54.5408C49.5222 53.9548 51.2943 51.8065 51.2943 51.8065Z" fill="#1F0744"/>
<path d="M22.5016 37.8581V41.9526H19.6878V37.8814L17.6309 37.8658L21.0306 34.4661L24.4343 37.8658L22.5016 37.8581Z" fill="#1F0744" stroke="#1F0744" stroke-miterlimit="10" stroke-linecap="round" stroke-linejoin="round"/>
<path d="M68.24 33.636C68.24 33.636 67.6462 33.8688 66.5557 34.5131C67.3629 33.178 67.4871 33.015 68.0305 32.5648C68.1973 32.9917 68.24 33.636 68.24 33.636Z" fill="#1F0744"/>
<path d="M63.0195 31.7883C64.2692 30.0224 66.1903 28.0159 68.3831 26.9448C71.1348 25.6058 74.4569 26.6188 76.1219 29.1841C78.3496 32.615 79.1336 35.3705 79.1336 35.3705C79.1336 35.3705 80.6045 34.9707 81.6718 37.2606C82.1142 38.2153 82.2811 39.2787 82.1103 40.3188C81.893 41.6384 81.0081 42.0071 80.1737 42.0071" stroke="#1F0744" stroke-miterlimit="10" stroke-linecap="round" stroke-linejoin="round"/>
<path d="M80.3209 40.7341C80.3209 40.7341 80.7672 43.7148 77.2588 43.3926" stroke="#1F0744" stroke-miterlimit="10" stroke-linecap="round" stroke-linejoin="round"/>
<path d="M77.4143 41.5607C77.4143 41.5607 77.8994 43.7767 76.1762 44.4132C75.0818 44.8169 74.1154 44.7082 73.3857 44.0678" stroke="#1F0744" stroke-miterlimit="10" stroke-linecap="round" stroke-linejoin="round"/>
<path d="M66.4385 34.3769C66.4385 34.3769 67.8124 32.4131 69.3454 31.4972C70.3273 30.9111 71.5808 31.1556 72.2911 32.0522C73.6921 33.818 74.2316 37.0626 74.2316 37.0626" stroke="#1F0744" stroke-miterlimit="10" stroke-linecap="round" stroke-linejoin="round"/>
<path d="M74.9306 37.645C74.9306 37.645 74.2631 36.7174 73.0677 36.7834C71.752 36.8571 70.8322 38.1223 71.0806 39.4147C71.1738 39.896 71.2436 40.0163 71.2436 40.0163C71.2436 40.0163 71.5347 40.8856 72.0625 41.3242" stroke="#1F0744" stroke-miterlimit="10" stroke-linecap="round" stroke-linejoin="round"/>
<path d="M79.2418 35.3511L78.4307 35.452" stroke="#1F0744" stroke-miterlimit="10" stroke-linecap="round" stroke-linejoin="round"/>
<path d="M73.3857 38.448C73.3857 38.448 75.1865 39.2979 74.6316 42.2242" stroke="#1F0744" stroke-miterlimit="10" stroke-linecap="round" stroke-linejoin="round"/>
<path d="M74.0611 40.6565C74.0611 40.6565 74.0805 39.5349 73.25 38.5685C73.902 38.7237 74.7442 39.9851 74.6239 40.1869C74.5075 40.3887 74.0611 40.6565 74.0611 40.6565Z" fill="#1F0744"/>
<path d="M100.048 51.7211L86.4877 65.3823C84.9702 66.9076 82.5058 66.9192 80.9766 65.4017L73.5677 58.0472C72.0425 56.5297 72.0309 54.0652 73.5483 52.5361L87.1087 38.8749C88.6261 37.3496 91.0906 37.338 92.6197 38.8555L100.029 46.21C101.554 47.7275 101.565 50.1958 100.048 51.7211Z" stroke="#1F0744" stroke-miterlimit="10" stroke-linecap="round" stroke-linejoin="round"/>
<path d="M89.6125 53.6304L88.3162 54.9344C87.9398 55.3148 87.3227 55.3148 86.9424 54.9383L86.0963 54.1C85.7159 53.7235 85.7159 53.1065 86.0924 52.7261L87.3887 51.4221C87.7651 51.0418 88.3822 51.0418 88.7626 51.4182L89.6086 52.2565C89.9851 52.6291 89.989 53.2501 89.6125 53.6304Z" fill="#1F0744" stroke="#1F0744" stroke-miterlimit="10" stroke-linecap="round" stroke-linejoin="round"/>
<path d="M75.6641 60.1311L86.43 54.6084" stroke="#1F0744" stroke-miterlimit="10" stroke-linecap="round" stroke-linejoin="round"/>
<path d="M94.7156 40.9396L89.2744 51.7444" stroke="#1F0744" stroke-miterlimit="10" stroke-linecap="round" stroke-linejoin="round"/>
<path d="M82.2109 38.8748L84.5861 41.2344" stroke="#1F0744" stroke-miterlimit="10" stroke-linecap="round" stroke-linejoin="round"/>
<path d="M75.9819 50.095L73.0284 47.1609C70.987 45.1351 71.2819 41.5296 73.6843 39.1117" stroke="#1F0744" stroke-miterlimit="10" stroke-linecap="round" stroke-linejoin="round"/>
<path d="M82.0049 40.7687L83.5418 42.2939" stroke="#1F0744" stroke-miterlimit="10" stroke-linecap="round" stroke-linejoin="round"/>
<path d="M76.9675 48.9734L74.5923 46.6176C72.908 44.9449 72.8304 42.1273 74.4604 40.2799" stroke="#1F0744" stroke-miterlimit="10" stroke-linecap="round" stroke-linejoin="round"/>
<path d="M77.0755 49.0161L75.7754 50.0445L76.4002 48.4067L77.0755 49.0161Z" fill="#1F0744"/>
<path d="M84.6599 41.2654L83.4219 42.3482L84.0002 40.6716L84.6599 41.2654Z" fill="#1F0744"/>
<path d="M21.3486 84.1821C26.3342 84.1821 30.3758 83.5044 30.3758 82.6685C30.3758 81.8326 26.3342 81.1549 21.3486 81.1549C16.3629 81.1549 12.3213 81.8326 12.3213 82.6685C12.3213 83.5044 16.3629 84.1821 21.3486 84.1821Z" fill="#1F0744"/>
<path d="M47.5883 72.3642C48.7526 68.8208 48.6051 65.39 42.9854 63.2399C37.1638 61.1558 33.3604 63.9967 31.6722 65.7665C31.024 66.4457 30.6864 66.9657 30.667 66.9968L47.5883 72.3642Z" stroke="#1F0744" stroke-miterlimit="10" stroke-linecap="round" stroke-linejoin="round"/>
<path d="M47.8677 70.9633L31.7227 65.8403" stroke="#1F0744" stroke-miterlimit="10" stroke-linecap="round" stroke-linejoin="round"/>
<path d="M40.373 62.5995L41.6421 65.0096" stroke="#1F0744" stroke-miterlimit="10" stroke-linecap="round" stroke-linejoin="round"/>
<path d="M38.6973 62.5881L39.7995 64.8547" stroke="#1F0744" stroke-miterlimit="10" stroke-linecap="round" stroke-linejoin="round"/>
<path d="M3.25488 1.18213V20.7348" stroke="#1F0744" stroke-miterlimit="10" stroke-linecap="round" stroke-linejoin="round"/>
<path d="M1 17.6765V30.2239" stroke="#1F0744" stroke-miterlimit="10" stroke-linecap="round" stroke-linejoin="round"/>
<path d="M68.1191 68.848V75.7679" stroke="#1F0744" stroke-miterlimit="10" stroke-linecap="round" stroke-linejoin="round"/>
<path d="M70.7197 73.8002V83.4989" stroke="#1F0744" stroke-miterlimit="10" stroke-linecap="round" stroke-linejoin="round"/>
<path d="M39.1662 26.3547L33.0303 26.704" stroke="#1F0744" stroke-miterlimit="10" stroke-linecap="round" stroke-linejoin="round"/>
<path d="M36.4536 31.1904L34.2725 31.4388" stroke="#1F0744" stroke-miterlimit="10" stroke-linecap="round" stroke-linejoin="round"/>
<path d="M9.97665 27.1891C11.8395 27.5772 13.4463 29.2616 12.9301 30.8916C12.5575 32.0715 11.0129 33.3522 8.68427 32.2888C6.87182 31.435 6.39058 30.228 6.36729 29.2383C6.33624 28.0313 6.97661 26.8359 8.00897 26.215C8.66486 25.8191 9.5769 25.6483 10.5549 25.9821C12.7322 26.7195 13.3337 28.1827 12.9456 29.2577" stroke="#1F0744" stroke-miterlimit="10" stroke-linecap="round" stroke-linejoin="round"/>
<path d="M38.3127 26.3547C38.79 26.6497 39.1161 26.3547 39.1161 26.3547L36.574 31.1944L35.1846 31.272L38.3127 26.3547Z" fill="#1F0744"/>
<path d="M34.0318 68.2195C33.3914 70.7072 32.6191 73.2687 31.7109 75.9078" stroke="#1F0744" stroke-miterlimit="10" stroke-linecap="round" stroke-linejoin="round"/>
<path d="M36.6904 45.4841C36.8767 50.8244 36.4614 56.7197 35.1846 63.1661" stroke="#1F0744" stroke-miterlimit="10" stroke-linecap="round" stroke-linejoin="round"/>
<path d="M30.6006 20.5138C32.3276 24.3483 33.8762 28.924 34.8542 34.2255" stroke="#1F0744" stroke-miterlimit="10" stroke-linecap="round" stroke-linejoin="round"/>
<path d="M47.9587 70.9832C47.7678 71.5108 47.525 72.3448 47.525 72.3448L30.6547 67.0782L31.6704 65.7294L47.9587 70.9832Z" fill="#1F0744"/>
<path d="M59.2755 70.8834C58.7324 70.7423 57.8394 70.0563 57.8394 70.0563L61.5546 53.2913L63.1232 53.6957L59.2755 70.8834Z" fill="#1F0744"/>
</svg>
