<svg width="125" height="89" viewBox="0 0 125 89" fill="none" xmlns="http://www.w3.org/2000/svg">
<g clip-path="url(#clip0_1341_310)">
<path d="M45.9669 56.9728L45.5632 68.2898C45.5127 69.6706 46.6182 70.8174 47.999 70.8174L54.7375 65.019L55.898 57.5416L45.9669 56.9728Z" fill="#BE46D1"/>
<path d="M54.7373 71.4184H60.43C60.43 71.4184 59.0905 74.0653 58.485 77.2856C57.6593 81.6895 59.8382 86.13 63.8795 88.0659C64.3565 88.2953 64.5859 88.3549 64.5859 88.3549L70.5905 73.8726V73.7166V62.5693L66.6226 62.5693C65.4666 62.9547 64.4208 63.6703 63.6868 64.8951H57.6364" fill="#BE46D1"/>
<path d="M88.8974 55.5369C88.6314 56.2158 88.1268 56.8443 87.2139 57.1837C84.902 58.037 82.9708 57.3718 81.8699 55.1102C81.5213 54.39 81.3607 53.5735 81.5305 52.789L81.5213 52.8303C80.4066 52.4312 79.7828 50.5642 79.7828 50.5642C79.7828 50.5642 79.6727 50.3807 79.5351 49.6559C79.1589 47.7062 80.5488 45.7979 82.5259 45.6878C84.324 45.5869 84.2873 46.1007 84.2873 46.1007C84.2873 46.1007 80.9708 37.0269 78.6497 36.6094C75.5901 36.0589 72.0718 41.0637 72.0718 41.0637L69.8975 33.5772C72.3149 31.3569 80.1543 24.9071 84.3286 30.3156C89.3057 36.7654 91.6818 43.5501 91.6818 43.5501C91.6818 43.5501 93.8974 42.9446 95.5121 46.4034C96.1818 47.8393 96.4295 49.4494 96.1726 51.0137C95.8424 53.0046 94.5121 53.5551 93.2552 53.5551L93.3057 53.3946C92.9341 54.5965 91.8515 55.9222 88.8515 55.6516L88.8974 55.5369Z" fill="#BE46D1"/>
<path d="M78.0347 36.6094C78.0347 39.2976 77.5622 41.8803 76.6952 44.2703L62.4475 50.1651L64.8329 57.1058C62.0026 58.3902 58.8558 59.1104 55.5393 59.1104C43.1127 59.1104 33.0439 49.0366 33.0439 36.614C33.0439 24.1915 43.1127 14.113 55.5393 14.113C65.1815 14.113 73.4062 20.1775 76.6081 28.7008" fill="#BE46D1"/>
<path d="M32.0078 72.5147C40.3656 71.2027 43.6271 75.7442 44.7326 79.0288L53.1958 58.8444L60.4435 58.5737L51.0261 79.7995C51.0261 79.7995 54.4252 80.2077 54.127 86.6025C48.3014 86.6025 38.4573 86.6025 38.4573 86.6025" fill="#BE46D1"/>
</g>
<path d="M38.4581 86.477C38.4581 86.477 37.0824 72.4646 32.1831 72.4646C29.3038 72.8759 30.1676 81.2075 31.301 86.477C33.5633 86.477 38.4581 86.477 38.4581 86.477Z" fill="#1F0744"/>
<path d="M73.1648 22.7628C68.4894 25.8477 62.3515 27.717 55.6149 27.717C48.8784 27.717 42.7405 25.8432 38.0605 22.7628" stroke="#1F0744" stroke-miterlimit="10" stroke-linecap="round" stroke-linejoin="round"/>
<path d="M33.2021 36.7023L67.9773 36.6978" stroke="#1F0744" stroke-miterlimit="10" stroke-linecap="round" stroke-linejoin="round"/>
<path d="M55.7432 14.3308V58.8589" stroke="#1F0744" stroke-miterlimit="10" stroke-linecap="round" stroke-linejoin="round"/>
<path d="M55.7424 14.349C51.9902 16.7484 48.9053 20.0527 46.7664 23.9603C44.6275 27.8678 43.5078 32.2507 43.5078 36.7022C43.5078 41.1536 44.6275 45.5365 46.7664 49.4441C48.9053 53.3517 51.9902 56.656 55.7424 59.0554" stroke="#1F0744" stroke-miterlimit="10" stroke-linecap="round" stroke-linejoin="round"/>
<path d="M64.8741 57.1221C62.0542 58.4018 58.919 59.1193 55.6147 59.1193C43.2339 59.1193 33.2021 49.083 33.2021 36.7067C33.2021 24.3304 43.2384 14.2896 55.6147 14.2896C65.2214 14.2896 73.4159 20.3314 76.606 28.823" stroke="#1F0744" stroke-miterlimit="10" stroke-linecap="round" stroke-linejoin="round"/>
<path d="M78.0269 36.7068C78.0269 39.385 77.5562 41.958 76.6924 44.3391" stroke="#1F0744" stroke-miterlimit="10" stroke-linecap="round" stroke-linejoin="round"/>
<path d="M62.9913 52.1818C61.0352 54.9011 58.581 57.2365 55.7383 59.0509" stroke="#1F0744" stroke-miterlimit="10" stroke-linecap="round" stroke-linejoin="round"/>
<path d="M55.7432 14.349C59.4954 16.7484 62.5803 20.0527 64.7191 23.9603C66.858 27.8679 67.9778 32.2507 67.9778 36.7022C67.9778 41.0165 66.9266 45.2623 64.9157 49.0739" stroke="#1F0744" stroke-miterlimit="10" stroke-linecap="round" stroke-linejoin="round"/>
<path d="M38.0654 50.6461C42.7408 47.5611 48.8787 45.6919 55.6198 45.6919C60.0347 45.6919 64.1891 46.4963 67.8453 47.9176" stroke="#1F0744" stroke-miterlimit="10" stroke-linecap="round" stroke-linejoin="round"/>
<path d="M60.4912 58.5846L50.6377 80.8144" stroke="#1F0744" stroke-miterlimit="10" stroke-linecap="round" stroke-linejoin="round"/>
<path d="M53.3434 59.1194L44.6416 79.032" stroke="#1F0744" stroke-miterlimit="10" stroke-linecap="round" stroke-linejoin="round"/>
<path d="M51.1173 79.7312C51.1173 79.7312 54.5039 80.1379 54.2068 86.5089C48.4026 86.5089 38.5948 86.5089 38.5948 86.5089C38.5948 86.5089 37.1872 72.4781 32.169 72.4781C29.2212 72.8895 30.1032 81.2302 31.2641 86.5089C33.5766 86.5089 38.5902 86.5089 38.5902 86.5089" stroke="#1F0744" stroke-miterlimit="10" stroke-linecap="round" stroke-linejoin="round"/>
<path d="M45.2445 82.0573C45.2445 81.8791 44.7372 70.5037 32.1689 72.478" stroke="#1F0744" stroke-miterlimit="10" stroke-linecap="round" stroke-linejoin="round"/>
<path d="M46.0767 56.9941L45.6745 68.269C45.6242 69.6446 46.7257 70.7872 48.1013 70.7872" stroke="#1F0744" stroke-miterlimit="10" stroke-linecap="round" stroke-linejoin="round"/>
<path d="M54.8193 71.3812H61.8621" stroke="#1F0744" stroke-miterlimit="10" stroke-linecap="round" stroke-linejoin="round"/>
<path d="M57.7031 64.8823H65.6508" stroke="#1F0744" stroke-miterlimit="10" stroke-linecap="round" stroke-linejoin="round"/>
<path d="M66.6564 62.5652C65.5047 62.9491 64.4627 63.6621 63.7314 64.8823" stroke="#1F0744" stroke-miterlimit="10" stroke-linecap="round" stroke-linejoin="round"/>
<path d="M60.4913 71.3812C60.4913 71.3812 59.1568 74.0183 58.5535 77.2266C57.7308 81.6141 59.9017 86.0381 63.9281 87.9667C64.4034 88.1952 64.632 88.2547 64.632 88.2547L70.6144 73.8263" stroke="#1F0744" stroke-miterlimit="10" stroke-linecap="round" stroke-linejoin="round"/>
<path d="M52.9911 59.9191L58.7679 62.4693L60.3767 58.5846C60.3767 58.5846 54.3759 59.3615 53.5213 59.1147C52.6666 58.8725 52.9911 59.9191 52.9911 59.9191Z" fill="#1F0744"/>
<path d="M45.9992 58.4337L51.9451 62.3184L53.4944 58.8724C53.4944 58.8724 48.2706 58.1686 46.3465 57.2957C45.533 56.9255 45.9992 58.4337 45.9992 58.4337Z" fill="#1F0744"/>
<path d="M56.9041 71.4043L60.4917 64.8506L57.7633 64.7592C57.7633 64.7592 56.0952 69.5031 55.1765 71.0524C54.7926 71.7014 56.9041 71.4043 56.9041 71.4043Z" fill="#1F0744"/>
<path d="M45.7065 76.8016C45.7065 76.8016 45.7385 80.956 45.542 82.0574L44.6416 78.6754L45.7065 76.8016Z" fill="#1F0744"/>
<path d="M61.9992 71.564C61.9992 71.564 59.9609 73.4607 59.5358 74.5439C59.1885 75.4351 60.3859 71.3812 60.3996 71.3812C60.4133 71.3812 61.9992 71.564 61.9992 71.564Z" fill="#1F0744"/>
<path d="M69.9248 33.6813C72.3333 31.4693 80.1439 25.0435 84.3029 30.4319C89.2616 36.8577 91.629 43.6171 91.629 43.6171C91.629 43.6171 93.8365 43.0138 95.4452 46.4598C96.1125 47.8903 96.3592 49.4944 96.1033 51.0529C95.7743 53.0364 94.4489 53.5848 93.1966 53.5848" stroke="#1F0744" stroke-miterlimit="10" stroke-linecap="round" stroke-linejoin="round"/>
<path d="M93.4014 51.6787C93.4014 51.6787 94.0732 56.153 88.8037 55.6731" stroke="#1F0744" stroke-miterlimit="10" stroke-linecap="round" stroke-linejoin="round"/>
<path d="M89.0368 52.9218C89.0368 52.9218 89.768 56.249 87.1767 57.2042C84.8732 58.0542 82.9492 57.3915 81.8523 55.1384C81.505 54.4209 81.345 53.6074 81.5141 52.8258C81.7289 51.8112 82.4921 50.6778 84.8961 51.08" stroke="#1F0744" stroke-miterlimit="10" stroke-linecap="round" stroke-linejoin="round"/>
<path d="M72.0898 41.1399C72.0898 41.1399 75.5953 36.1537 78.6436 36.7022C80.9562 37.1181 84.2605 46.1581 84.2605 46.1581" stroke="#1F0744" stroke-miterlimit="10" stroke-linecap="round" stroke-linejoin="round"/>
<path d="M85.3081 47.0402C85.3081 47.0402 84.3026 45.6508 82.5111 45.7468C80.5367 45.8565 79.1565 47.7577 79.5312 49.7001C79.6683 50.4222 79.778 50.605 79.778 50.605C79.778 50.605 80.3996 52.4651 81.5102 52.8627" stroke="#1F0744" stroke-miterlimit="10" stroke-linecap="round" stroke-linejoin="round"/>
<path d="M91.7788 43.5941L90.5586 43.7449" stroke="#1F0744" stroke-miterlimit="10" stroke-linecap="round" stroke-linejoin="round"/>
<path d="M82.9863 48.2419C82.9863 48.2419 85.6919 49.5216 84.8556 53.9136" stroke="#1F0744" stroke-miterlimit="10" stroke-linecap="round" stroke-linejoin="round"/>
<path d="M77.963 38.4342C77.963 38.4342 74.5079 39.3437 72.3096 41.2952C73.507 39.042 76.9758 36.5924 77.803 36.7066C78.6302 36.8209 77.963 38.4342 77.963 38.4342Z" fill="#1F0744"/>
<path d="M38.1695 43.1464C42.5892 43.1464 46.1721 39.5636 46.1721 35.1439C46.1721 30.7242 42.5892 27.1414 38.1695 27.1414C33.7499 27.1414 30.167 30.7242 30.167 35.1439C30.167 39.5636 33.7499 43.1464 38.1695 43.1464Z" fill="white" stroke="#1F0744" stroke-miterlimit="10" stroke-linecap="round" stroke-linejoin="round"/>
<path d="M38.1695 43.1464C33.7501 43.1464 30.167 39.5633 30.167 35.1439C30.167 30.7244 33.7501 27.1414 38.1695 27.1414V43.1464Z" fill="#1F0744"/>
<path d="M38.1696 38.6903C40.1283 38.6903 41.7161 37.1025 41.7161 35.1438C41.7161 33.1851 40.1283 31.5973 38.1696 31.5973C36.2109 31.5973 34.623 33.1851 34.623 35.1438C34.623 37.1025 36.2109 38.6903 38.1696 38.6903Z" fill="white"/>
<path d="M49.8063 43.1464C54.2259 43.1464 57.8088 39.5636 57.8088 35.1439C57.8088 30.7242 54.2259 27.1414 49.8063 27.1414C45.3866 27.1414 41.8037 30.7242 41.8037 35.1439C41.8037 39.5636 45.3866 43.1464 49.8063 43.1464Z" fill="white" stroke="#1F0744" stroke-miterlimit="10" stroke-linecap="round" stroke-linejoin="round"/>
<path d="M49.8063 43.1464C45.3868 43.1464 41.8037 39.5633 41.8037 35.1439C41.8037 30.7244 45.3868 27.1414 49.8063 27.1414V43.1464Z" fill="#1F0744"/>
<path d="M49.8063 38.6903C51.765 38.6903 53.3528 37.1025 53.3528 35.1438C53.3528 33.1851 51.765 31.5973 49.8063 31.5973C47.8476 31.5973 46.2598 33.1851 46.2598 35.1438C46.2598 37.1025 47.8476 38.6903 49.8063 38.6903Z" fill="white"/>
<path d="M23.3122 63.7125C27.4254 63.7125 30.7617 60.3763 30.7617 56.263C30.7617 52.1498 27.4254 48.8135 23.3122 48.8135H10.4652C6.35192 48.8135 3.01562 52.1498 3.01562 56.263C3.01562 60.3763 6.35192 63.7125 10.4652 63.7125H18.5134L23.3122 70.0515V63.7125Z" fill="#1F0744" stroke="#1F0744" stroke-miterlimit="10" stroke-linecap="round" stroke-linejoin="round"/>
<path d="M21.292 63.7127C25.4052 63.7127 28.7415 60.3764 28.7415 56.2631C28.7415 52.1499 25.4052 48.8136 21.292 48.8136H8.44953C4.33629 48.8136 1 52.1499 1 56.2631C1 60.3764 4.33629 63.7127 8.44953 63.7127H16.4978L21.2966 70.0516V63.7127H21.292Z" fill="white" stroke="#1F0744" stroke-miterlimit="10" stroke-linecap="round" stroke-linejoin="round"/>
<path d="M8.09764 58.1869C9.10727 58.1869 9.92575 57.3684 9.92575 56.3587C9.92575 55.3491 9.10727 54.5306 8.09764 54.5306C7.088 54.5306 6.26953 55.3491 6.26953 56.3587C6.26953 57.3684 7.088 58.1869 8.09764 58.1869Z" fill="#FF6A2A" stroke="#1F0744" stroke-miterlimit="10" stroke-linecap="round" stroke-linejoin="round"/>
<path d="M21.0957 58.1867C22.1053 58.1867 22.9238 57.3683 22.9238 56.3586C22.9238 55.349 22.1053 54.5305 21.0957 54.5305C20.086 54.5305 19.2676 55.349 19.2676 56.3586C19.2676 57.3683 20.086 58.1867 21.0957 58.1867Z" fill="#FF6A2A" stroke="#1F0744" stroke-miterlimit="10" stroke-linecap="round" stroke-linejoin="round"/>
<path d="M14.5967 58.1867C15.6063 58.1867 16.4248 57.3683 16.4248 56.3586C16.4248 55.349 15.6063 54.5305 14.5967 54.5305C13.587 54.5305 12.7686 55.349 12.7686 56.3586C12.7686 57.3683 13.587 58.1867 14.5967 58.1867Z" fill="#FF6A2A" stroke="#1F0744" stroke-miterlimit="10" stroke-linecap="round" stroke-linejoin="round"/>
<path d="M23.4669 52.7256C27.354 52.7256 30.5051 49.5745 30.5051 45.6874C30.5051 41.8003 27.354 38.6492 23.4669 38.6492C19.5798 38.6492 16.4287 41.8003 16.4287 45.6874C16.4287 49.5745 19.5798 52.7256 23.4669 52.7256Z" fill="#F0C4FF" stroke="#1F0744" stroke-miterlimit="10" stroke-linecap="round" stroke-linejoin="round"/>
<path d="M21.7895 46.9669L21.6478 48.9503C21.8489 48.9503 21.9357 48.8635 22.0408 48.7584L22.9869 47.8535L24.9475 49.2886C25.3086 49.4896 25.5599 49.3845 25.6559 48.9595L26.9402 42.9359C27.0544 42.4057 26.7482 42.1955 26.3963 42.328L18.8417 45.221C18.3252 45.4221 18.3344 45.71 18.7548 45.838L20.688 46.4367L25.176 43.6306C25.3863 43.4889 25.5782 43.5666 25.4228 43.7083L21.7895 46.9669Z" fill="#1F0744"/>
<path d="M100.952 29.3806H93.137C91.318 29.3806 89.8418 27.9044 89.8418 26.0855V18.2657C89.8418 16.4468 91.318 14.9706 93.137 14.9706H100.957C102.776 14.9706 104.252 16.4468 104.252 18.2657V26.0855C104.247 27.9044 102.771 29.3806 100.952 29.3806Z" fill="#F0C4FF" stroke="#1F0744" stroke-miterlimit="10" stroke-linecap="round" stroke-linejoin="round"/>
<path d="M97.0445 25.6834C98.9804 25.6834 100.55 24.114 100.55 22.178C100.55 20.242 98.9804 18.6726 97.0445 18.6726C95.1085 18.6726 93.5391 20.242 93.5391 22.178C93.5391 24.114 95.1085 25.6834 97.0445 25.6834Z" fill="#1F0744"/>
<path d="M101.044 18.828C101.574 18.828 102.004 18.3983 102.004 17.8682C102.004 17.3381 101.574 16.9084 101.044 16.9084C100.514 16.9084 100.084 17.3381 100.084 17.8682C100.084 18.3983 100.514 18.828 101.044 18.828Z" fill="#1F0744"/>
<path d="M73.165 16.9084C73.165 16.9084 74.5133 9.74224 80.1758 9.99817C81.0762 10.0393 81.9674 10.2998 82.662 10.8711C85.2808 13.042 83.1465 17.2466 80.9665 16.3189C79.1384 15.5419 75.8524 7.59878 92.7349 1.18213" stroke="#1F0744" stroke-miterlimit="10" stroke-linecap="round" stroke-linejoin="round"/>
<path d="M91.3535 4.85203L98.9676 2.98279" stroke="#1F0744" stroke-miterlimit="10" stroke-linecap="round" stroke-linejoin="round"/>
<path d="M83.5571 44.8144L67.5703 51.0802L79.4667 85.7045L120.462 68.1136V68.1181L109.027 34.8329L90.9518 41.9168" stroke="#1F0744" stroke-miterlimit="10" stroke-linecap="round" stroke-linejoin="round"/>
<path d="M89.8374 39.458L102.849 34.3439H102.831L109.01 34.8283L99.9971 60.0242L97.5977 66.7242L67.5711 51.0802L62.498 50.2073L74.3945 84.8316L79.4675 85.7045L89.4992 62.5059" stroke="#1F0744" stroke-miterlimit="10" stroke-linecap="round" stroke-linejoin="round"/>
<path d="M82.589 42.3101L62.498 50.2075" stroke="#1F0744" stroke-miterlimit="10" stroke-linecap="round" stroke-linejoin="round"/>
<path d="M120.463 68.1184L100.226 59.38" stroke="#1F0744" stroke-miterlimit="10" stroke-linecap="round" stroke-linejoin="round"/>
<path d="M89.4979 81.3992C92.24 81.2575 96.0014 81.0839 99.1046 81.0839C112.916 81.0839 124.113 82.6423 124.113 84.5664C124.113 86.4905 112.916 88.0489 99.1046 88.0489C85.2932 88.0489 74.2012 86.7007 74.2012 84.7446L79.7769 85.6816L89.4979 81.3992Z" fill="#1F0744"/>
<path d="M74.3942 84.8315L79.5357 85.549L67.6165 51.1029L62.5938 50.2803L74.3942 84.8315Z" fill="#1F0744"/>
<path d="M83.8957 50.9614C83.8957 50.9614 84.0328 49.8691 82.7852 48.4249C83.7678 48.658 85.0292 50.5547 84.8464 50.8563C84.6681 51.158 83.8957 50.9614 83.8957 50.9614Z" fill="#1F0744"/>
<defs>
<clipPath id="clip0_1341_310">
<rect width="64.2659" height="74.2418" fill="white" transform="translate(32.0078 14.113)"/>
</clipPath>
</defs>
</svg>
