<svg width="125" height="86" viewBox="0 0 125 86" fill="none" xmlns="http://www.w3.org/2000/svg">
<path d="M67.5955 46.8158L76.5837 62.1714C68.1961 63.2608 66.0595 71.555 66.1711 71.7199H94.4828C93.569 63.1523 84.6966 61.4206 84.6966 61.4206L78.377 50.4485" fill="#BF3B09"/>
<path d="M54.2199 40.694C55.5958 27.2036 63.3647 28.5649 63.3647 28.5649C63.3647 28.5649 69.0042 6.42425 80.9516 8.36559C88.1938 9.54241 90.765 29.3509 90.3022 39.1048C90.1008 43.3869 87.9367 47.4027 84.1013 49.2925C81.633 50.508 76.1778 50.9805 72.0382 49.6791C61.552 46.3762 63.3047 33.2293 63.3047 33.2293L60.8578 44.1987C62.0834 45.4872 64.0589 47.9138 64.1789 52.0456C64.2004 52.866 64.8174 52.9948 64.0161 53.1709L63.9518 52.9519C56.3282 41.248 40.8154 42.5451 40.8154 42.5451C49.0904 37.9795 54.2199 40.694 54.2199 40.694Z" fill="#BF3B09"/>
<path d="M90.2601 40.4095C109.103 49.9252 120.625 62.0857 117.792 71.2028C114.015 83.3633 86.1537 85.5194 55.5575 76.0207C24.9614 66.5221 3.22512 48.9608 7.00142 36.8003C10.3705 25.9558 32.8826 23.0668 59.411 29.3035" stroke="#1F0744" stroke-miterlimit="10" stroke-linecap="round"/>
<path d="M30.7987 39.5737H21.7158V84.6622H30.7987V39.5737Z" fill="#BF3B09" stroke="#1F0744" stroke-miterlimit="10" stroke-linecap="round"/>
<path d="M46.7059 49.5867H37.623V84.6621H46.7059V49.5867Z" fill="#BF3B09" stroke="#1F0744" stroke-miterlimit="10" stroke-linecap="round"/>
<path d="M62.6082 61.4044H53.5254V84.6623H62.6082V61.4044Z" fill="#BF3B09" stroke="#1F0744" stroke-miterlimit="10" stroke-linecap="round"/>
<path d="M78.5106 71.8588H69.4277V84.6622H78.5106V71.8588Z" fill="#BF3B09" stroke="#1F0744" stroke-miterlimit="10" stroke-linecap="round"/>
<path d="M94.4129 78.2584H85.3301V84.6623H94.4129V78.2584Z" fill="#BF3B09" stroke="#1F0744" stroke-miterlimit="10" stroke-linecap="round"/>
<path d="M63.5044 28.6262C63.5044 28.6262 69.1495 6.52995 81.0957 8.4674C88.3397 9.64186 90.9115 29.4106 90.4486 39.145C90.2471 43.4185 88.0825 47.4263 84.2462 49.3123C81.7772 50.5254 76.3207 50.9969 72.18 49.6981C61.6912 46.4019 63.1657 35.1072 63.1657 35.1072" stroke="#1F0744" stroke-miterlimit="10" stroke-linecap="round" stroke-linejoin="round"/>
<path d="M78.3696 8.28739C78.3696 8.28739 77.418 15.2313 85.125 17.0488C85.125 17.0488 85.7765 19.5992 88.3226 20.0107C90.8687 20.4221 91.5031 13.4096 87.3239 12.3937C87.3239 12.3937 87.5725 12.218 87.8039 11.7765C88.5026 10.4392 87.8297 8.83606 86.4537 8.21882C83.5861 6.93719 79.3083 7.76875 79.3083 7.76875C78.5068 4.95689 73.3631 -0.461122 71.1299 1.66492C68.8967 3.79097 73.6717 7.33582 73.6717 7.33582C72.0686 8.62174 73.4531 10.6835 73.4831 10.6578C73.4831 10.6578 75.7121 8.84033 78.3696 8.28739Z" fill="#1F0744" stroke="#1F0744" stroke-miterlimit="10" stroke-linecap="round" stroke-linejoin="round"/>
<path d="M75.8145 26.6201C78.3688 26.6201 80.4395 24.5495 80.4395 21.9951C80.4395 19.4408 78.3688 17.3701 75.8145 17.3701C73.2601 17.3701 71.1895 19.4408 71.1895 21.9951C71.1895 24.5495 73.2601 26.6201 75.8145 26.6201Z" fill="white" stroke="#1F0744" stroke-miterlimit="10" stroke-linecap="round" stroke-linejoin="round"/>
<path d="M78.6996 25.6086C76.7021 27.2031 73.7917 26.8773 72.1971 24.8799C70.6026 22.8824 70.9284 19.972 72.9258 18.3774L78.6996 25.6086Z" fill="#1F0744"/>
<path d="M67.5498 47.2076L78.5101 65.4548" stroke="#1F0744" stroke-miterlimit="10" stroke-linecap="round" stroke-linejoin="round"/>
<path d="M78.3223 50.7911L86.895 65.5063" stroke="#1F0744" stroke-miterlimit="10" stroke-linecap="round" stroke-linejoin="round"/>
<path d="M76.5302 62.3685C68.1503 63.4444 66.0157 71.6357 66.1271 71.7986H94.413C93.5 63.3372 84.6357 61.627 84.6357 61.627" stroke="#1F0744" stroke-miterlimit="10" stroke-linecap="round" stroke-linejoin="round"/>
<path d="M54.3613 40.7267C55.3901 27.9147 62.2226 28.4977 62.2226 28.4977C62.2226 28.4977 69.0293 28.3863 75.8147 36.2303" stroke="#1F0744" stroke-miterlimit="10" stroke-linecap="round" stroke-linejoin="round"/>
<path d="M56.3155 41.7941C56.3155 41.7941 50.1603 36.9033 40.9531 42.5742C40.9531 42.5742 56.4698 41.2797 64.091 52.9601" stroke="#1F0744" stroke-miterlimit="10" stroke-linecap="round" stroke-linejoin="round"/>
<path d="M60.0793 43.1871C61.3052 44.473 64.1985 47.9363 64.3185 52.0598C64.34 52.8785 63.7699 53.5944 62.9683 53.7701C61.1595 54.1645 57.0703 53.8816 49.7191 50.5768C42.8652 47.4177 39.6804 43.7914 40.9492 42.5784" stroke="#1F0744" stroke-miterlimit="10" stroke-linecap="round" stroke-linejoin="round"/>
<path d="M47.0314 49.2138C53.3581 53.2001 63.0625 55.0861 63.9841 53.1101C64.3699 52.2828 58.8447 45.8532 51.4507 43.8686L45.3255 42.6813C44.8197 42.5913 43.2509 42.5699 42.7408 42.5399C40.4733 42.3941 40.3618 43.0499 40.9576 44.2115C41.2791 44.8374 41.7721 45.5789 42.3379 45.999L47.0314 49.2138Z" fill="#1F0744"/>
<path d="M56.4144 41.6012L54.3741 39.3423L54.3184 40.6325L56.4144 41.6012Z" fill="#1F0744"/>
<path d="M63.8429 35.4331L63.6543 33.2513L63.1699 34.9316L63.8429 35.4331Z" fill="#1F0744"/>
<path d="M63.4446 33.2812L60.9971 44.2287" stroke="#1F0744" stroke-miterlimit="10" stroke-linecap="round" stroke-linejoin="round"/>
<path d="M63.0928 34.8544L71.9827 43.8515" stroke="#1F0744" stroke-miterlimit="10" stroke-linecap="round" stroke-linejoin="round"/>
<path d="M71.8712 44.0229L63.1913 35.0472L63.0498 36.7618L71.8712 44.0229Z" fill="#1F0744"/>
<path d="M66.5645 25.5615C69.1188 25.5615 71.1895 23.4908 71.1895 20.9365C71.1895 18.3822 69.1188 16.3115 66.5645 16.3115C64.0101 16.3115 61.9395 18.3822 61.9395 20.9365C61.9395 23.4908 64.0101 25.5615 66.5645 25.5615Z" fill="white" stroke="#1F0744" stroke-miterlimit="10" stroke-linecap="round" stroke-linejoin="round"/>
<path d="M69.4496 24.5542C67.4521 26.1488 64.5417 25.823 62.9471 23.8256C61.3526 21.8281 61.6784 18.9177 63.6758 17.3231L69.4496 24.5542Z" fill="#1F0744"/>
<path d="M29.0373 31.8495C32.5599 31.8495 35.4155 28.9939 35.4155 25.4714C35.4155 21.9489 32.5599 19.0933 29.0373 19.0933C25.5148 19.0933 22.6592 21.9489 22.6592 25.4714C22.6592 28.9939 25.5148 31.8495 29.0373 31.8495Z" fill="white" stroke="#1F0744" stroke-miterlimit="10" stroke-linecap="round" stroke-linejoin="round"/>
<path d="M28.8359 21.8622V26.0928L31.6864 27.1559" stroke="#1F0744" stroke-miterlimit="10" stroke-linecap="round" stroke-linejoin="round"/>
<path d="M19.9543 65.8707C23.4769 65.8707 26.3324 63.0151 26.3324 59.4925C26.3324 55.97 23.4769 53.1144 19.9543 53.1144C16.4318 53.1144 13.5762 55.97 13.5762 59.4925C13.5762 63.0151 16.4318 65.8707 19.9543 65.8707Z" fill="white" stroke="#1F0744" stroke-miterlimit="10" stroke-linecap="round" stroke-linejoin="round"/>
<path d="M22.7316 57.5097L22.7317 57.5099C23.0033 58.0241 22.9965 58.574 22.7938 59.1544C22.5874 59.7454 22.1854 60.3398 21.7153 60.8823C21.2487 61.4208 20.7361 61.8841 20.3372 62.2144C20.1908 62.3357 20.0606 62.4382 19.9549 62.5191C19.8494 62.4382 19.7194 62.3357 19.5731 62.2145C19.1745 61.8842 18.6624 61.4209 18.196 60.8824C17.7261 60.3399 17.3242 59.7455 17.1176 59.1543C16.9147 58.5739 16.9075 58.0241 17.1778 57.5101C17.3675 57.1532 17.5442 57.1112 17.6705 57.1122C17.8613 57.1137 18.1255 57.2237 18.4375 57.4518C18.7362 57.6702 19.0155 57.9499 19.2252 58.1832C19.3286 58.2984 19.4121 58.3988 19.4692 58.4699C19.4977 58.5053 19.5195 58.5333 19.5338 58.5518L19.5495 58.5723L19.5528 58.5768L19.5531 58.5772L19.5533 58.5774L19.5533 58.5775L19.5534 58.5775L19.9547 59.1189L20.3562 58.5776L20.3562 58.5776L20.3563 58.5775L20.3564 58.5773L20.3567 58.5769L20.3601 58.5724L20.3758 58.5519C20.3901 58.5333 20.4119 58.5053 20.4405 58.4698C20.4978 58.3986 20.5814 58.298 20.685 58.1827C20.895 57.949 21.1748 57.6688 21.4737 57.4502C21.7862 57.2216 22.0504 57.1118 22.2406 57.1104C22.323 57.1098 22.3933 57.1291 22.4622 57.1752C22.5355 57.2242 22.6317 57.3203 22.7316 57.5097Z" fill="#FF6A2A" stroke="#1F0744"/>
<path d="M1 42.7799L6.88949 36.8904L12.7833 42.7799" stroke="#1F0744" stroke-miterlimit="10" stroke-linecap="round"/>
<path d="M103.894 35.6432L95.7588 55.8449" stroke="#1F0744" stroke-miterlimit="10" stroke-linecap="round" stroke-linejoin="round"/>
<path d="M97.251 39.8138L102.407 51.6743" stroke="#1F0744" stroke-miterlimit="10" stroke-linecap="round" stroke-linejoin="round"/>
<path d="M105.798 43.2556L93.8604 48.2321" stroke="#1F0744" stroke-miterlimit="10" stroke-linecap="round" stroke-linejoin="round"/>
<path d="M123.955 66.3377L111.525 69.8569L109.12 61.0098L121.525 57.7007L123.955 66.3377Z" fill="white"/>
<path d="M121.593 57.6308L109.126 61.0208L111.533 69.8725L124 66.4826L121.593 57.6308Z" stroke="#1F0744" stroke-miterlimit="10" stroke-linecap="round" stroke-linejoin="round"/>
<path d="M109.12 61.0098L116.681 64.1988L121.585 57.6193" stroke="#1F0744" stroke-miterlimit="10" stroke-linecap="round" stroke-linejoin="round"/>
</svg>
