<svg width="78" height="78" viewBox="0 0 78 78" fill="none" xmlns="http://www.w3.org/2000/svg">
<circle cx="39" cy="39" r="39" fill="#2097ED"/>
<path fill-rule="evenodd" clip-rule="evenodd" d="M28.2305 14.997C26.8983 15.9334 26.3067 17.2075 26.5328 18.6535C26.6278 19.2615 26.6647 19.33 26.9985 19.5172C27.778 19.9544 28.4424 19.406 28.3412 18.4088C28.2311 17.3239 28.6843 16.6372 29.688 16.3682C30.7693 16.0785 31.577 16.5315 31.8596 17.5862C32.1173 18.5481 31.7359 19.2896 30.7621 19.7198C30.3227 19.914 29.864 20.3637 28.0775 22.3524L25.9229 24.7507L27.5283 24.3205L29.1336 23.8904L30.1254 22.7959L31.117 21.7016L32.523 22.1535L33.9291 22.6054L35.5348 22.1751L37.1405 21.7447L35.0284 21.0574L32.9162 20.37L33.213 19.9777C33.3779 19.7597 33.5866 19.2167 33.6826 18.7559C33.8356 18.022 33.8283 17.8266 33.6191 17.0588C33.4075 16.2822 33.3238 16.1297 32.8218 15.6069C31.8847 14.6308 30.7661 14.2945 29.3942 14.5759C28.8812 14.6812 28.4661 14.8313 28.2305 14.997ZM46.8909 9.99694C45.5587 10.9333 44.9671 12.2074 45.1932 13.6535C45.2882 14.2615 45.3251 14.33 45.6589 14.5171C46.4384 14.9544 47.1028 14.4059 47.0016 13.4087C46.8915 12.3238 47.3447 11.6371 48.3483 11.3682C49.4297 11.0785 50.2374 11.5315 50.52 12.5862C50.7777 13.548 50.3963 14.2896 49.4225 14.7198C48.9831 14.914 48.5244 15.3636 46.7378 17.3524L44.5833 19.7506L46.1887 19.3205L47.794 18.8903L48.7857 17.7959L49.7774 16.7015L51.1834 17.1534L52.5895 17.6054L54.1952 17.175L55.8009 16.7447L53.6888 16.0573L51.5766 15.37L51.8734 14.9777C52.0383 14.7596 52.247 14.2167 52.343 13.7559C52.496 13.022 52.4887 12.8266 52.2795 12.0587C52.0679 11.2821 51.9842 11.1297 51.4822 10.6069C50.5451 9.63081 49.4265 9.29443 48.0546 9.57586C47.5415 9.68117 47.1265 9.83128 46.8909 9.99694ZM21.5042 27.9386C21.0498 28.2265 20.3959 29.21 20.3233 29.7152C20.2906 29.9424 20.5965 33.1547 21.003 36.8537L21.7421 43.5792L23.9406 51.7862L26.139 59.9932L27.9162 59.517L29.6934 59.0408L27.21 49.7728L24.7266 40.5046L24.9281 40.1657C25.1944 39.7171 25.7049 39.5804 26.1599 39.8356L26.5038 40.0284L28.755 48.4298L31.0061 56.8312L33.2276 56.2359L35.449 55.6407L32.2274 43.6175L29.0058 31.5943L28.7322 31.7949C28.5818 31.9054 28.1093 32.0914 27.6823 32.2084C26.7588 32.4615 26.0416 32.3918 25.1827 31.9657C24.304 31.5297 23.8795 30.9884 23.1788 29.4099C22.8419 28.6512 22.5128 27.9272 22.4473 27.8012C22.315 27.5465 22.0657 27.5828 21.5042 27.9386ZM24.7278 28.4094C25.0485 29.1377 25.4453 29.8805 25.6094 30.0601C26.1838 30.6886 27.2881 30.6961 27.9801 30.0762C28.4282 29.6749 28.4053 29.4909 27.8641 29.1393C27.2956 28.77 26.3199 27.6475 26.052 27.0546L25.8583 26.6259L25.0015 26.8555L24.1446 27.0851L24.7278 28.4094ZM27.7036 26.2901C27.7254 26.3714 28.0104 26.7331 28.3368 27.0937C29.0582 27.8905 29.8924 28.3378 31.0212 28.5328C31.7753 28.6631 31.956 28.6498 32.9103 28.3941C33.8645 28.1384 34.0277 28.0595 34.6156 27.5697C35.4957 26.8364 35.9945 26.0319 36.2208 24.9812C36.3232 24.5057 36.3892 24.05 36.3674 23.9686C36.3345 23.8461 35.583 24.0202 31.9958 24.9814C28.4087 25.9425 27.6708 26.1676 27.7036 26.2901ZM38.1712 23.9302C38.1901 24.7545 37.9556 25.9223 37.6511 26.52C37.3405 27.1299 37.4386 27.2919 38.1845 27.4012C38.8165 27.4939 39.2278 27.3449 39.7152 26.8466C40.1274 26.4253 40.1798 25.9641 40.0022 24.3166L39.8471 22.8776L39.0023 23.104L38.1574 23.3304L38.1712 23.9302ZM41.675 22.6491C41.6813 22.7911 41.7583 23.5826 41.8459 24.4081C42.0746 26.5622 41.7681 27.579 40.6149 28.491C40.069 28.9227 38.8319 29.3164 38.229 29.2503L37.8917 29.2134L41.1133 41.2365L44.3349 53.2597L46.5564 52.6645L48.7779 52.0692L46.5268 43.6679L44.2756 35.2665L44.477 34.9275C44.7434 34.479 45.2539 34.3422 45.7089 34.5975L46.0528 34.7903L48.5362 44.0584L51.0196 53.3265L52.7967 52.8503L54.5739 52.3741L52.3742 44.1674L50.1745 35.9608L47.4447 29.752C45.7803 25.9663 44.603 23.4142 44.4282 23.2126C43.6877 22.3591 41.6434 21.9407 41.675 22.6491ZM45.8132 22.0477C46.1225 22.3878 46.3935 22.7332 46.4156 22.8153C46.4491 22.9406 47.4787 22.6907 52.7868 21.2684L59.118 19.5719L58.8858 18.7052L58.6535 17.8385L51.9522 19.6341L45.2509 21.4297L45.8132 22.0477ZM47.3042 24.7985C47.3322 24.9029 48.3811 27.3179 49.6351 30.1653L51.9151 35.3425L54.2941 44.221L56.6731 53.0995L56.468 53.4447L56.263 53.7898L53.1442 54.5913L50.0253 55.3928L50.1524 55.8664C50.3009 56.4202 51.2869 60.9016 51.4644 61.8292L51.5859 62.4643L56.0183 61.2767L60.4507 60.089L55.5736 41.8877L50.6966 23.6864L48.975 24.1477C47.4093 24.5672 47.2579 24.6262 47.3042 24.7985ZM57.3508 41.4115L62.2279 59.6128L66.658 58.4258L71.0882 57.2387L70.8599 56.5741C70.7343 56.2087 68.5838 49.4562 66.081 41.5688C60.6102 24.3282 60.9915 25.4565 60.6669 25.5435C60.2332 25.6597 58.9193 25.3297 58.3014 24.9494C57.5945 24.5142 56.8085 23.6395 56.3943 22.8273L56.0948 22.2399L54.2843 22.725L52.4738 23.2102L57.3508 41.4115ZM58.0467 22.0362C58.2964 22.4857 58.9807 23.2458 59.3092 23.4385C59.4766 23.5367 59.7821 23.6521 59.9882 23.695L60.3627 23.773L60.0919 22.7685C59.6802 21.2409 59.7129 21.2704 58.7245 21.5353L57.8923 21.7583L58.0467 22.0362ZM33.67 41.8927L36.7617 53.431L39.4275 52.7167L42.0933 52.0025L39.0016 40.4641C37.3012 34.118 35.8927 28.9304 35.8718 28.936C35.8508 28.9416 35.5666 29.1307 35.2404 29.3562C34.7606 29.6877 34.4025 29.8318 33.3697 30.1085C32.3368 30.3853 31.9547 30.4396 31.3734 30.3924C30.9781 30.3602 30.6374 30.3385 30.6165 30.3441C30.5956 30.3497 31.9696 35.5466 33.67 41.8927Z" fill="#F4F2F4"/>
<path d="M3.72852 38.6785L23.9302 46.814" stroke="#1F0744" stroke-miterlimit="10" stroke-linecap="round" stroke-linejoin="round"/>
<path d="M7.89941 45.3221L19.7598 40.1656" stroke="#1F0744" stroke-miterlimit="10" stroke-linecap="round" stroke-linejoin="round"/>
<path d="M11.3408 36.7751L16.3173 48.7127" stroke="#1F0744" stroke-miterlimit="10" stroke-linecap="round" stroke-linejoin="round"/>
</svg>
