<svg width="56" height="56" viewBox="0 0 56 56" fill="none" xmlns="http://www.w3.org/2000/svg">
<circle cx="28" cy="28" r="28" fill="#CCAB36"/>
<path d="M45.3232 18.0884V25.0915" stroke="#1F0744" stroke-miterlimit="10" stroke-linecap="round" stroke-linejoin="round"/>
<path d="M43.3965 21.5924H47.2453" stroke="#1F0744" stroke-miterlimit="10" stroke-linecap="round" stroke-linejoin="round"/>
<path d="M48.9258 22.8425V32.1039" stroke="#1F0744" stroke-miterlimit="10" stroke-linecap="round" stroke-linejoin="round"/>
<path d="M46.3809 27.4753H51.4708" stroke="#1F0744" stroke-miterlimit="10" stroke-linecap="round" stroke-linejoin="round"/>
<path fill-rule="evenodd" clip-rule="evenodd" d="M8.33225 11.7233V12.5809H7.93789C7.61394 12.5809 7.51224 12.6123 7.36893 12.7564C7.27292 12.8529 7.19434 12.9937 7.19434 13.0693C7.19434 13.1449 7.32235 14.3563 7.47881 15.7612C7.63528 17.1662 7.76329 18.3615 7.76329 18.4175C7.76329 18.4734 7.84188 18.5981 7.93789 18.6946C8.09876 18.8564 8.1654 18.8701 8.79026 18.8701H9.46817L9.48694 30.9339L9.50572 42.9978L9.77135 43.5379C10.0912 44.1883 10.5031 44.5934 11.1642 44.9082C11.5939 45.1127 11.7039 45.1344 12.3149 45.1344C12.9259 45.1344 13.036 45.1127 13.4656 44.9082C14.1268 44.5934 14.5386 44.1883 14.8585 43.5379L15.1241 42.9979L15.1597 28.5934L15.1953 14.189L15.4204 13.7116C15.7336 13.0471 16.1367 12.6333 16.7841 12.3119L17.3215 12.0449H19.1387H20.9559L21.431 12.2711C22.0741 12.5773 22.5009 12.9902 22.8043 13.5995C22.9416 13.8753 23.054 14.1439 23.054 14.1963C23.054 14.274 22.495 14.2954 20.0365 14.3118C17.1161 14.3313 17.0128 14.3366 16.8228 14.4793C16.7148 14.5603 16.5605 14.7154 16.4798 14.8239L16.3332 15.0213L16.3148 27.9169C16.2946 42.1742 16.2593 41.1107 16.7645 41.498L17.0331 41.7039L20.0984 41.724L23.1636 41.744L23.2505 42.117C23.5557 43.4272 24.6001 44.535 25.9699 45.0012C26.3293 45.1236 26.6293 45.1344 29.6681 45.1344C32.7132 45.1344 33.0061 45.1238 33.3663 45.0006C34.3309 44.6706 35.0438 44.1229 35.5664 43.3103C36.0229 42.6006 36.15 42.133 36.1923 41.0071L36.2293 40.0245L36.7358 40.0232C38.5184 40.0189 40.1637 38.9925 40.9376 37.4022C41.5088 36.2283 41.5363 35.2334 41.0536 33.1993L40.7653 31.9844L40.7642 30.3049L40.7632 28.6254L41.1249 26.9459C41.4585 25.3968 41.484 25.211 41.4533 24.5517C41.41 23.6203 41.1659 22.8481 40.6874 22.1294C40.3137 21.5678 39.7771 21.0341 39.326 20.7754L39.0569 20.621L39.0564 18.6021C39.0559 16.8285 39.0692 16.5831 39.1657 16.5831C39.2262 16.5831 39.3542 16.5041 39.4502 16.4077L39.6248 16.2323V13.7244V11.2166L39.4502 11.0412L39.2757 10.8657H37.349H35.4223L35.2477 11.0412C35.1044 11.1852 35.0731 11.2874 35.0731 11.6129V12.0092H34.2197H33.3663V12.5809V13.1527H34.2197H35.0731V13.549C35.0731 14.1037 35.2647 14.2962 35.8167 14.2962H36.2111V15.2642C36.2111 16.1968 36.2174 16.2387 36.3856 16.4077C36.5466 16.5695 36.6131 16.5831 37.2391 16.5831H37.9179V18.368V20.1529L37.6868 20.1011C37.5596 20.0726 37.1036 20.0514 36.6733 20.0542C35.9934 20.0584 35.8109 20.0872 35.2781 20.2746C33.3923 20.9382 32.2025 22.5302 32.1082 24.516C32.0749 25.219 32.0955 25.3741 32.435 26.9689L32.7973 28.6714V30.3157V31.9599L32.4963 33.2228C32.2211 34.3774 32.1954 34.5654 32.1971 35.4148C32.1988 36.2796 32.2143 36.3844 32.4206 36.9296C32.5426 37.2517 32.7586 37.6914 32.9008 37.9066C33.2707 38.4666 34.0393 39.1663 34.6012 39.4548L35.0844 39.7029L35.061 40.7786L35.0376 41.8544L34.7719 42.3944C34.4521 43.0448 34.0402 43.45 33.3791 43.7647L32.904 43.9909H29.6681H26.4321L25.9571 43.7647C25.3139 43.4585 24.8871 43.0457 24.5837 42.4363C24.4465 42.1605 24.3341 41.892 24.3341 41.8395C24.3341 41.7618 24.8931 41.7404 27.3516 41.724C30.272 41.7046 30.3753 41.6992 30.5653 41.5566C30.6733 41.4755 30.8276 41.3204 30.9082 41.2119L31.0549 41.0145V28.025V15.0354L30.8499 14.7654C30.4926 14.2947 30.5042 14.2962 27.198 14.2962H24.2255L24.1381 13.921C23.9927 13.297 23.5952 12.5766 23.1343 12.1018C22.6588 11.6119 22.2603 11.3543 21.569 11.0901C21.1253 10.9204 21.0027 10.9084 19.4412 10.8812C17.4984 10.8473 17.0649 10.9035 16.2582 11.2938C15.1759 11.8175 14.3057 12.9529 14.0978 14.1128C14.0456 14.4042 14.0218 18.9157 14.0218 28.5409C14.0218 39.3271 14.002 42.6126 13.9353 42.8391C13.7547 43.4533 12.9724 44.0266 12.3149 44.0266C11.6574 44.0266 10.8751 43.4533 10.6945 42.8391C10.6282 42.6134 10.6081 39.7927 10.6081 30.7075V18.8701H11.2869C11.9129 18.8701 11.9794 18.8564 12.1403 18.6946C12.2363 18.5981 12.3149 18.4734 12.3149 18.4175C12.3149 18.3615 12.4429 17.1662 12.5994 15.7612C12.7559 14.3563 12.8839 13.1449 12.8839 13.0693C12.8839 12.9937 12.8053 12.8529 12.7093 12.7564C12.566 12.6123 12.4643 12.5809 12.1403 12.5809H11.746V11.7233V10.8657H11.177H10.6081V11.7233V12.5809H10.0391H9.47016V11.7233V10.8657H8.9012H8.33225V11.7233ZM37.5149 21.2384L37.9179 21.3197V21.942V22.5642L37.509 22.4247C36.3888 22.0426 35.096 22.6157 34.5885 23.7193C34.2963 24.3549 34.3053 24.8123 34.6424 26.4763C34.801 27.2596 34.9309 27.927 34.9309 27.9592C34.9309 27.9915 34.6816 28.0179 34.377 28.0179H33.823L33.5222 26.5707C33.1985 25.0132 33.1627 24.4967 33.3331 23.8396C33.4944 23.2172 33.7712 22.7499 34.2899 22.2238C35.1605 21.3409 36.299 20.993 37.5149 21.2384ZM39.9484 23.0937C40.1873 23.5676 40.3354 24.1739 40.3387 24.6918C40.3402 24.9366 40.21 25.7501 40.038 26.5707L39.7345 28.0179H39.1818C38.8778 28.0179 38.6291 27.9915 38.6291 27.9592C38.6291 27.927 38.7585 27.2596 38.9168 26.4763C39.1484 25.3297 39.1965 24.9615 39.1636 24.5875C39.1412 24.332 39.1074 23.6405 39.0885 23.0509L39.0543 21.9789L39.4136 22.3623C39.6112 22.5732 39.8519 22.9023 39.9484 23.0937ZM37.2598 23.5539C37.4037 23.6144 37.5822 23.7189 37.6562 23.7862C37.8587 23.9702 38.0598 24.4091 38.063 24.674C38.0646 24.8033 37.9294 25.6085 37.7628 26.4635L37.4598 28.0179H36.78H36.1002L35.7908 26.4458C35.582 25.385 35.493 24.7691 35.5174 24.5524C35.6077 23.7472 36.5009 23.2353 37.2598 23.5539ZM28.64 30.4803L28.8146 30.6557V34.3071V37.9584L28.64 38.1338L28.4655 38.3092H23.694H18.9226L18.748 38.1338L18.5734 37.9584V34.3071V30.6557L18.748 30.4803L18.9226 30.3049H23.694H28.4655L28.64 30.4803ZM19.7113 34.3071V37.1658H23.694H27.6767V34.3071V31.4484H23.694H19.7113V34.3071ZM23.1251 33.1636V33.7353H21.9872H20.8493V33.1636V32.5918H21.9872H23.1251V33.1636ZM26.5388 33.1636V33.7353H25.4009H24.263V33.1636V32.5918H25.4009H26.5388V33.1636ZM34.8963 32.7526C34.3649 35.0392 34.3238 35.3329 34.4602 35.868C34.5662 36.2838 34.8399 36.8149 34.9991 36.9138C35.0884 36.9692 35.101 38.3807 35.0123 38.3807C34.8657 38.3807 34.2531 37.8293 33.9694 37.4421C33.5449 36.8627 33.3583 36.3332 33.3131 35.5802C33.2805 35.0359 33.3092 34.8139 33.5462 33.7757L33.8165 32.5918H34.375C34.918 32.5918 34.9325 32.5963 34.8963 32.7526ZM37.7681 33.9838C38.0968 35.4881 38.0966 35.6307 37.7653 36.1055C37.5986 36.3444 37.0951 36.594 36.78 36.594C36.4561 36.594 35.9606 36.3425 35.7785 36.0855C35.4641 35.6418 35.4652 35.4792 35.7929 33.9792L36.0961 32.5918H36.78H37.464L37.7681 33.9838ZM40.0038 33.7299C40.2932 34.9911 40.3296 35.5997 40.1558 36.2699C39.9979 36.8792 39.7188 37.3553 39.2329 37.8438C38.5537 38.5266 37.6021 38.91 36.6937 38.8666L36.2466 38.8452L36.2263 38.2735L36.2059 37.7018L36.7952 37.6983C37.5077 37.694 37.8939 37.5421 38.3989 37.0675C38.796 36.6942 39.0251 36.2743 39.1292 35.7288C39.2177 35.2657 39.1556 34.8691 38.6637 32.7526C38.6275 32.5963 38.6421 32.5918 39.1846 32.5918H39.7426L40.0038 33.7299ZM26.5388 35.4505V36.0223H23.694H20.8493V35.4505V34.8788H23.694H26.5388V35.4505Z" fill="#F4F2F4"/>
</svg>
