<svg width="67" height="67" viewBox="0 0 67 67" fill="none" xmlns="http://www.w3.org/2000/svg">
<circle cx="33.5" cy="33.5" r="33.5" fill="#C50DE3"/>
<path fill-rule="evenodd" clip-rule="evenodd" d="M36.1595 7.24328C32.7702 6.74173 29.2333 7.36058 26.2231 8.98185C20.213 12.2188 16.9131 18.7244 17.8564 25.4765C18.4899 30.0112 21.1334 34.1747 24.9603 36.6654C25.8012 37.2127 26.5122 37.5883 27.7848 38.1573C27.9498 38.2311 28.0368 38.4137 27.99 38.5883L27.6916 39.7019C27.3213 41.084 27.3161 41.1254 27.4779 41.4033C27.5841 41.5858 27.7581 41.7188 27.9621 41.7735L30.8738 42.5537L33.7855 43.3339C33.9894 43.3885 34.2067 43.3603 34.3899 43.2553C34.6655 43.0976 34.6881 43.0462 35.0077 41.8536C35.1909 41.17 35.8936 40.7643 36.5773 40.9474L41.2305 42.1943L45.8838 43.4411C46.5674 43.6243 46.9732 44.327 46.79 45.0107C46.4704 46.2033 46.4643 46.2591 46.6242 46.5335C46.7303 46.716 46.9044 46.8491 47.1083 46.9037L50.02 47.6839L52.9317 48.4641C53.1357 48.5187 53.3529 48.4905 53.5361 48.3856C53.7192 48.2808 53.8529 48.1072 53.9075 47.9035L55.2692 42.8215L56.6309 37.7395C56.6855 37.5357 56.6565 37.3185 56.5504 37.1363C56.4442 36.9538 56.2701 36.8207 56.0662 36.766L53.1545 35.9859L50.2428 35.2057C50.0389 35.151 49.8216 35.1793 49.6384 35.2842C49.3628 35.4419 49.3401 35.4933 49.0206 36.6859C48.8374 37.3696 48.1347 37.7753 47.451 37.5921L45.7839 37.1454C43.4837 36.5291 42.9 36.3472 42.9801 36.2717C43.0356 36.2193 43.3141 35.9963 43.5989 35.7763C47.1743 33.0145 49.4672 28.5239 49.6924 23.8426C49.7578 22.4829 49.674 21.5008 49.3588 19.9331C48.3937 15.1343 45.426 11.1615 41.0861 8.859C39.6763 8.11106 37.7465 7.47811 36.1595 7.24328ZM34.9808 15.4438L33.9078 19.4483C33.5266 20.8708 32.0645 21.715 30.642 21.3338L28.2763 20.7C28.1541 20.6672 28.0717 20.5531 28.0791 20.4267C28.0861 20.3073 28.1377 19.9355 28.1938 19.6004C28.6203 17.0539 28.2131 13.9208 27.1082 11.2467L26.9812 10.9395C26.8525 10.6278 26.9869 10.2697 27.2889 10.1197C30.1224 8.71242 33.5151 8.24224 36.5798 8.83204C36.7347 8.86191 36.6448 9.23355 34.9808 15.4438ZM40.1184 10.0774C41.347 10.6769 42.3506 11.3613 43.4114 12.323C44.2841 13.1141 45.5761 14.6291 45.6881 14.9925C45.7296 15.1268 45.5909 15.2664 45.0413 15.6441C42.7018 17.2511 40.4692 20.0707 39.5263 22.6087C39.4027 22.9412 39.2574 23.3008 39.2035 23.4075C39.1463 23.5206 39.0176 23.5781 38.8952 23.5453L36.8979 23.0101C35.6787 22.6834 34.9552 21.4303 35.2819 20.2112L36.4538 15.8376L38.0745 9.78897C38.1508 9.5045 38.4566 9.34869 38.7315 9.45424C39.0144 9.56285 39.6385 9.84332 40.1184 10.0774ZM46.9589 17.2575C48.055 19.7222 48.4224 22.6873 47.9884 25.5655C47.9562 25.7788 47.7456 25.9167 47.5372 25.8609L44.2606 24.9829L40.9389 24.0929C40.7558 24.0438 40.6578 23.8448 40.7306 23.6697C41.7768 21.1536 42.9386 19.4448 44.6597 17.8904C45.3272 17.2875 46.4457 16.4588 46.5531 16.4876C46.5927 16.4982 46.7753 16.8446 46.9589 17.2575ZM25.9971 12.5909C26.7965 14.9166 27.0095 17.3464 26.633 19.8433C26.6008 20.0567 26.3902 20.1946 26.1817 20.1387L23.2734 19.3594L20.3199 18.568C20.1369 18.519 20.039 18.3199 20.1119 18.145C21.0254 15.954 21.6714 14.884 22.9337 13.4719C23.675 12.6427 24.0679 12.2707 24.8285 11.6784C25.3773 11.2508 25.4122 11.2384 25.5354 11.4266C25.6067 11.5355 25.8145 12.0594 25.9971 12.5909ZM25.9767 22.3612C25.1203 24.6628 23.6997 26.7435 21.9314 28.286C20.7088 29.3527 20.6388 29.3971 20.4974 29.1989C20.2968 28.9177 19.7185 27.1269 19.5156 26.1585C19.1658 24.489 19.1369 22.4102 19.4383 20.6092C19.4993 20.2449 19.8609 20.0123 20.2177 20.1079L22.8845 20.8225L25.5514 21.5371C25.9084 21.6327 26.1056 22.0148 25.9767 22.3612ZM31.0101 30.2626L29.3793 36.3489C29.2798 36.7203 28.8841 36.9272 28.5224 36.797C26.7239 36.1496 24.789 34.8836 23.3839 33.4348C22.7417 32.7727 21.7114 31.4657 21.4617 30.9964C21.376 30.8353 21.4245 30.6356 21.5745 30.5317L21.7594 30.4037C22.5167 29.8793 23.7078 28.7813 24.4262 27.9453C25.7601 26.3931 26.6879 24.7968 27.4678 22.7117C27.5952 22.3709 27.9608 22.1826 28.3123 22.2768L30.2591 22.7985C31.6767 23.1783 32.5179 24.6354 32.1381 26.0529L31.0101 30.2626ZM38.583 25.739C37.9891 29.236 38.4088 32.5381 39.8243 35.504L39.8385 35.5338C40.0158 35.9053 39.8483 36.3496 39.47 36.5118C36.8129 37.6502 33.9383 38.0223 31.3702 37.56C30.9918 37.4919 30.7526 37.1149 30.8521 36.7436L32.4829 30.6572L33.7092 26.0807C34.0347 24.8658 35.2835 24.1448 36.4985 24.4703L38.0328 24.8814C38.41 24.9825 38.6483 25.354 38.583 25.739ZM47.3271 28.082C46.4709 30.4095 44.967 32.5942 43.1329 34.1746C42.2701 34.9182 41.4878 35.4849 41.4499 35.3941C41.4379 35.3651 41.299 35.0645 41.1414 34.726C39.9486 32.1638 39.5673 29.1057 40.0641 26.0869C40.1199 25.7478 40.4562 25.5308 40.7882 25.6197L43.8666 26.4446L46.8995 27.2573C47.2568 27.353 47.4548 27.7348 47.3271 28.082ZM16.8523 39.8207C16.6692 39.9255 16.5355 40.099 16.4809 40.3028L15.1192 45.3848L13.7574 50.4668C13.7028 50.6706 13.7319 50.8877 13.838 51.07C13.9442 51.2525 14.1182 51.3856 14.3222 51.4402L17.2339 52.2204L20.1456 53.0006C20.3495 53.0552 20.5668 53.027 20.75 52.9221C21.0256 52.7644 21.0482 52.7129 21.3678 51.5204C21.551 50.8367 22.2537 50.431 22.9374 50.6142L27.5906 51.861L32.2439 53.1078C32.9276 53.291 33.3333 53.9938 33.1501 54.6774C32.8305 55.87 32.8245 55.9259 32.9843 56.2002C33.0904 56.3827 33.2645 56.5158 33.4684 56.5704L36.3801 57.3506L39.2918 58.1308C39.4958 58.1855 39.713 58.1572 39.8962 58.0523C40.0793 57.9475 40.213 57.774 40.2676 57.5702L41.6293 52.4882L42.9911 47.4062C43.0457 47.2024 43.0166 46.9853 42.9105 46.803C42.8043 46.6205 42.6303 46.4874 42.4263 46.4328L39.5146 45.6526L36.6029 44.8724C36.399 44.8178 36.1817 44.846 35.9985 44.9509C35.7229 45.1086 35.7003 45.1601 35.3807 46.3526C35.1975 47.0363 34.4948 47.442 33.8111 47.2588L29.1579 46.012L24.5046 44.7652C23.8209 44.582 23.4152 43.8792 23.5984 43.1956C23.918 42.003 23.924 41.9471 23.7642 41.6728C23.6581 41.4903 23.484 41.3572 23.2801 41.3026L20.3684 40.5224L17.4566 39.7422C17.2527 39.6875 17.0355 39.7158 16.8523 39.8207ZM34.2654 50.515C34.049 51.3226 33.2189 51.8019 32.4113 51.5855L27.9824 50.3988L23.5535 49.212C22.746 48.9956 22.2667 48.1656 22.4831 47.358C22.6995 46.5504 23.5296 46.0711 24.3372 46.2875L28.7661 47.4742L33.195 48.661C34.0025 48.8774 34.4818 49.7074 34.2654 50.515Z" fill="#F4F2F4"/>
<path d="M3.16504 39.9084C3.16504 39.9084 4.51325 32.7422 10.1758 32.9982C11.0762 33.0393 11.9674 33.2998 12.662 33.8711C15.2808 36.042 13.1465 40.2466 10.9665 39.3189C9.13838 38.5419 5.85236 30.5988 22.7349 24.1821" stroke="#1F0744" stroke-miterlimit="10" stroke-linecap="round" stroke-linejoin="round"/>
</svg>
