<svg width="126" height="126" viewBox="0 0 126 126" fill="none" xmlns="http://www.w3.org/2000/svg">
<rect x="61.417" y="0.262451" width="72.0234" height="86.4281" rx="15" transform="rotate(45 61.417 0.262451)" fill="url(#paint0_linear_351_3646)"/>
<rect x="74.1494" y="17.9442" width="65.0234" height="79.4281" rx="11.5" transform="rotate(45 74.1494 17.9442)" fill="url(#paint1_linear_351_3646)"/>
<rect x="74.1494" y="17.9442" width="65.0234" height="79.4281" rx="11.5" transform="rotate(45 74.1494 17.9442)" stroke="url(#paint2_linear_351_3646)" stroke-width="7"/>
<rect x="74.1494" y="17.9442" width="65.0234" height="79.4281" rx="11.5" transform="rotate(45 74.1494 17.9442)" stroke="url(#paint3_linear_351_3646)" stroke-width="7"/>
<path d="M48.5778 95.6349L44.5219 85.3509L45.5469 84.3259L55.8309 88.3818L54.5619 89.6508L52.2208 88.6764L48.8627 92.0346L49.8468 94.3659L48.5778 95.6349ZM46.4334 86.2667L48.2548 90.5677L50.7539 88.0686L46.4529 86.2471L46.4334 86.2667Z" fill="white"/>
<path d="M58.2281 86.188C57.6619 86.7542 57.0828 87.0146 56.4908 86.9693C55.8985 86.9107 55.2905 86.5695 54.6667 85.9457L49.2969 80.5759L50.5171 79.3556L55.826 84.6645C56.4362 85.2747 56.9886 85.3325 57.4832 84.8379C57.5548 84.7663 57.623 84.6913 57.6878 84.6129C57.7526 84.5346 57.8074 84.4527 57.8521 84.3672L58.8394 85.3936C58.6662 85.6889 58.4624 85.9537 58.2281 86.188Z" fill="white"/>
<path d="M53.465 78.6655L52.2243 77.4247L53.5909 76.058L54.8317 77.2988L53.465 78.6655ZM59.5842 84.6285L54.611 79.6553L55.8312 78.435L60.8045 83.4082L59.5842 84.6285Z" fill="white"/>
<path d="M62.1895 82.0232L55.0196 74.8532L59.5979 70.2748L60.6353 71.3121L57.2576 74.6898L59.2307 76.6628L62.3936 73.4999L63.4309 74.5373L60.268 77.7002L62.3529 79.7851L65.7306 76.4074L66.7679 77.4448L62.1895 82.0232Z" fill="white"/>
<path d="M67.2334 76.9793L66.6615 72.405L62.3871 71.8792L63.8123 70.4539L66.4999 70.8377L66.1162 68.1501L67.5414 66.7248L68.0677 71.0192L72.6415 71.5712L71.2065 73.0062L68.2496 72.6069L68.6586 75.5541L67.2334 76.9793Z" fill="white"/>
<path d="M75.0569 72.8171L68.253 66.0132L69.444 64.8222L70.2373 65.6155C70.1028 65.2076 70.0908 64.7857 70.2014 64.3496C70.3185 63.907 70.5528 63.51 70.9042 63.1586C71.3208 62.7421 71.7903 62.4827 72.3129 62.3805C72.8419 62.2718 73.3876 62.3228 73.9498 62.5336C74.5052 62.7376 75.0507 63.1074 75.5863 63.643C76.1152 64.1718 76.4883 64.7208 76.7059 65.2897C76.9166 65.8519 76.9709 66.3943 76.8687 66.9169C76.7665 67.4394 76.5039 67.9122 76.0809 68.3352C75.7425 68.6737 75.362 68.9049 74.9395 69.0291C74.5167 69.14 74.1049 69.1382 73.7041 69.0238L76.2772 71.5968L75.0569 72.8171ZM74.773 67.7107C75.1375 67.3463 75.2947 66.9178 75.2448 66.4253C75.1881 65.9261 74.8919 65.4086 74.3563 64.873C73.8139 64.3306 73.2998 64.0378 72.8141 63.9947C72.3217 63.9447 71.8932 64.102 71.5287 64.4665C71.1643 64.8309 71.007 65.2594 71.057 65.7518C71.1001 66.2375 71.3929 66.7516 71.9353 67.294C72.4709 67.8296 72.9884 68.1258 73.4876 68.1825C73.9801 68.2324 74.4086 68.0752 74.773 67.7107Z" fill="white"/>
<path d="M79.0797 65.133L74.1065 60.1598L75.2974 58.9688L76.1721 59.8435C75.8165 59.0193 75.9921 58.1927 76.6991 57.3638L77.0395 56.9623L78.1957 57.9623L77.564 58.7363C76.8449 59.6182 76.8718 60.4455 77.6447 61.2185L80.3195 63.8932L79.0797 65.133Z" fill="white"/>
<path d="M85.2806 59.1355C84.7404 59.6757 84.17 60.0359 83.5693 60.2162C82.9687 60.3965 82.3677 60.4008 81.7665 60.2291C81.1718 60.0509 80.61 59.6974 80.0811 59.1685C79.5658 58.6532 79.2158 58.1015 79.0311 57.5132C78.8529 56.9185 78.8343 56.3337 78.9753 55.7588C79.116 55.1706 79.4174 54.6455 79.8794 54.1834C80.5563 53.5066 81.3137 53.1967 82.1516 53.2537C82.9961 53.3042 83.8048 53.7159 84.5778 54.4888L84.9541 54.8651L81.5373 58.2818C82.5167 59.0789 83.4489 59.0349 84.3339 58.1498C84.6008 57.883 84.8269 57.5755 85.0124 57.2273C85.1911 56.8723 85.2995 56.4927 85.3377 56.0883L86.5337 56.601C86.5025 57.0254 86.3721 57.4677 86.1425 57.9278C85.9128 58.388 85.6255 58.7906 85.2806 59.1355ZM80.7927 54.9991C80.4348 55.357 80.2604 55.7619 80.2697 56.2137C80.2789 56.6655 80.4574 57.1108 80.8051 57.5496L83.2065 55.1481C82.7669 54.7606 82.341 54.5559 81.9288 54.5342C81.5163 54.4992 81.1376 54.6541 80.7927 54.9991Z" fill="white"/>
<path d="M89.9663 54.4498C89.5628 54.8533 89.1345 55.1799 88.6813 55.4297C88.2282 55.6794 87.7896 55.8265 87.3654 55.8709L86.8439 54.7246C87.2542 54.6533 87.6565 54.5154 88.0508 54.311C88.4383 54.0997 88.7817 53.8444 89.0811 53.5451C89.3935 53.2327 89.5703 52.9474 89.6115 52.6893C89.6524 52.4178 89.5813 52.1905 89.3983 52.0075C89.1135 51.7227 88.7287 51.7414 88.2438 52.0635L87.0744 52.8465C86.0851 53.5103 85.2244 53.4761 84.4921 52.7438C84.1667 52.4184 83.9699 52.0524 83.9018 51.6459C83.8402 51.2328 83.898 50.809 84.075 50.3743C84.2521 49.9396 84.5391 49.5237 84.9361 49.1268C85.2745 48.7883 85.6508 48.5138 86.0648 48.3031C86.4722 48.0856 86.8848 47.9646 87.3027 47.9399L87.8047 49.1058C87.4532 49.1318 87.0966 49.2308 86.7349 49.4027C86.3796 49.5681 86.0816 49.7712 85.8408 50.012C85.5219 50.3309 85.342 50.626 85.3011 50.8975C85.2667 51.1624 85.3444 51.3898 85.5342 51.5797C85.8326 51.878 86.2011 51.8756 86.6399 51.5724L87.8093 50.7895C88.3137 50.4478 88.7817 50.2781 89.2135 50.2803C89.6517 50.276 90.0539 50.4569 90.42 50.823C90.915 51.318 91.1193 51.8933 91.0331 52.549C90.9402 53.1979 90.5846 53.8315 89.9663 54.4498Z" fill="white"/>
<path d="M94.7329 49.6832C94.3294 50.0867 93.9011 50.4133 93.448 50.663C92.9948 50.9128 92.5562 51.0599 92.1321 51.1043L91.6105 49.958C92.0208 49.8867 92.4231 49.7488 92.8174 49.5444C93.2049 49.3331 93.5483 49.0778 93.8477 48.7785C94.1601 48.4661 94.3369 48.1808 94.3781 47.9226C94.419 47.6512 94.3479 47.4239 94.1649 47.2409C93.8801 46.9561 93.4953 46.9748 93.0104 47.2969L91.841 48.0799C90.8518 48.7437 89.991 48.7094 89.2588 47.9772C88.9333 47.6517 88.7365 47.2858 88.6684 46.8793C88.6069 46.4662 88.6646 46.0424 88.8416 45.6077C89.0187 45.173 89.3057 44.7571 89.7027 44.3601C90.0411 44.0217 90.4174 43.7472 90.8315 43.5365C91.2388 43.319 91.6514 43.198 92.0693 43.1733L92.5713 44.3392C92.2199 44.3652 91.8633 44.4641 91.5015 44.6361C91.1463 44.8015 90.8482 45.0046 90.6075 45.2453C90.2886 45.5642 90.1086 45.8594 90.0677 46.1309C90.0333 46.3958 90.111 46.6232 90.3008 46.8131C90.5992 47.1114 90.9677 47.109 91.4065 46.8058L92.5759 46.0228C93.0803 45.6812 93.5483 45.5115 93.9801 45.5137C94.4183 45.5093 94.8205 45.6903 95.1866 46.0564C95.6816 46.5513 95.8859 47.1267 95.7998 47.7824C95.7068 48.4313 95.3512 49.0649 94.7329 49.6832Z" fill="white"/>
<path d="M48.6373 95.3863L44.6141 85.185L45.6308 84.1682L55.8322 88.1915L54.5733 89.4503L52.2511 88.4838L48.92 91.8149L49.8962 94.1275L48.6373 95.3863ZM46.5102 86.0934L48.317 90.3598L50.796 87.8808L46.5296 86.074L46.5102 86.0934Z" fill="#EE9135"/>
<path d="M58.2101 86.0154C57.6484 86.577 57.074 86.8353 56.4867 86.7904C55.8992 86.7322 55.2961 86.3938 54.6773 85.775L49.3507 80.4484L50.5611 79.2379L55.8272 84.5041C56.4325 85.1094 56.9805 85.1667 57.4711 84.6761C57.5422 84.6051 57.6098 84.5307 57.6741 84.4529C57.7384 84.3752 57.7927 84.294 57.8371 84.2092L58.8165 85.2274C58.6446 85.5203 58.4425 85.783 58.2101 86.0154Z" fill="#EE9135"/>
<path d="M53.4853 78.5533L52.2545 77.3226L53.6102 75.9669L54.841 77.1977L53.4853 78.5533ZM59.5553 84.4684L54.6221 79.5352L55.8325 78.3247L60.7657 83.2579L59.5553 84.4684Z" fill="#EE9135"/>
<defs>
<linearGradient id="paint0_linear_351_3646" x1="76.0529" y1="0.0559627" x2="75.2669" y2="86.8554" gradientUnits="userSpaceOnUse">
<stop stop-color="#EE9135"/>
<stop offset="0.15625" stop-color="#B16A16"/>
<stop offset="0.758565" stop-color="#965A15"/>
<stop offset="0.833789" stop-color="#A45104"/>
<stop offset="0.91676" stop-color="#C47111"/>
<stop offset="1" stop-color="#D56702"/>
</linearGradient>
<linearGradient id="paint1_linear_351_3646" x1="110.161" y1="12.9944" x2="110.161" y2="99.4225" gradientUnits="userSpaceOnUse">
<stop stop-color="#C83C00"/>
<stop offset="0.831735" stop-color="#A6371E"/>
<stop offset="1" stop-color="#8F1B01"/>
</linearGradient>
<linearGradient id="paint2_linear_351_3646" x1="140.013" y1="15.7242" x2="80.7262" y2="97.0092" gradientUnits="userSpaceOnUse">
<stop offset="0.557292" stop-color="#A33C10"/>
<stop offset="0.925805" stop-color="#C45F16"/>
<stop offset="1" stop-color="#863E16"/>
</linearGradient>
<linearGradient id="paint3_linear_351_3646" x1="82.3543" y1="-0.79057" x2="109.979" y2="39.0015" gradientUnits="userSpaceOnUse">
<stop stop-color="white" stop-opacity="0.4"/>
<stop offset="1" stop-color="white" stop-opacity="0"/>
</linearGradient>
</defs>
</svg>
