<svg width="33" height="33" viewBox="0 0 33 33" fill="none" xmlns="http://www.w3.org/2000/svg">
<path fill-rule="evenodd" clip-rule="evenodd" d="M31.963 2.45142C32.3535 2.0609 32.3535 1.42773 31.963 1.03721C31.5724 0.646684 30.9393 0.646685 30.5488 1.03721L16.5943 14.9916L2.63982 1.03715C2.24929 0.64663 1.61613 0.64663 1.2256 1.03715C0.835079 1.42768 0.835079 2.06084 1.2256 2.45137L15.1825 16.4083L1.2256 30.3652C0.835078 30.7557 0.835078 31.3889 1.2256 31.7794C1.61613 32.17 2.24929 32.17 2.63982 31.7794L16.5943 17.825L30.5488 31.7795C30.9393 32.17 31.5724 32.17 31.963 31.7795C32.3535 31.389 32.3535 30.7558 31.963 30.3653L18.006 16.4083L31.963 2.45142Z" fill="#F2F2F2"/>
</svg>
