<svg width="21" height="21" viewBox="0 0 21 21" fill="none" xmlns="http://www.w3.org/2000/svg">
<path fill-rule="evenodd" clip-rule="evenodd" d="M14.9106 0.65625H6.08917C3.09346 0.65625 0.65625 3.09358 0.65625 6.08929V14.9107C0.65625 17.9065 3.09346 20.3438 6.08917 20.3438H14.9106C17.9065 20.3438 20.3438 17.9064 20.3438 14.9107V6.08929C20.3439 3.09358 17.9065 0.65625 14.9106 0.65625ZM4.61523 10.5547C4.61523 7.27866 7.27824 4.61554 10.5543 4.61554C13.8303 4.61554 16.4933 7.27866 16.4933 10.5547C16.4933 13.8306 13.8302 16.4936 10.5543 16.4936C7.2783 16.4936 4.61523 13.8306 4.61523 10.5547ZM10.5543 7.2551C8.73609 7.2551 7.2548 8.73639 7.2548 10.5547C7.2548 12.3727 8.73604 13.854 10.5543 13.854C12.3725 13.854 13.8537 12.3727 13.8537 10.5547C13.8537 8.73639 12.3724 7.2551 10.5543 7.2551ZM16.2 3.00126C16.4377 2.76253 16.7683 2.62628 17.1048 2.62628C17.4425 2.62628 17.7733 2.76253 18.0108 3.00126C18.2495 3.23882 18.3858 3.56954 18.3858 3.90725C18.3858 4.24379 18.2495 4.57451 18.0108 4.81324C17.7721 5.0508 17.4425 5.18821 17.1048 5.18821C16.7683 5.18821 16.4376 5.0508 16.2 4.81324C15.9613 4.57451 15.8239 4.24391 15.8239 3.90725C15.8239 3.56954 15.9612 3.23882 16.2 3.00126Z" fill="url(#paint0_linear_1202_13506)"/>
<defs>
<linearGradient id="paint0_linear_1202_13506" x1="14.9604" y1="1.42529" x2="1.88672" y2="27.8804" gradientUnits="userSpaceOnUse">
<stop stop-color="#5B00C4"/>
<stop offset="1" stop-color="#D00049"/>
</linearGradient>
</defs>
</svg>
