<svg width="135" height="39" viewBox="0 0 135 39" fill="none" xmlns="http://www.w3.org/2000/svg">
<path d="M33.0856 20.228L31.9696 18.656C32.4096 18.4 32.7656 18.088 33.0376 17.72C33.3096 17.344 33.5096 16.872 33.6376 16.304C33.7656 15.728 33.8296 15.008 33.8296 14.144V11.54H40.2616V20H38.0536V13.34H35.8456V14.72C35.8456 16.176 35.5976 17.352 35.1016 18.248C34.6136 19.144 33.9416 19.804 33.0856 20.228Z" fill="#FCF2F8"/>
<path d="M40.7734 20L44.7334 11.54H46.4734L50.4334 20H48.2254L47.4934 18.284H43.7134L42.9814 20H40.7734ZM45.5854 13.844L44.4334 16.592H46.7614L45.6094 13.844H45.5854Z" fill="#FCF2F8"/>
<path d="M50.9457 20V11.54H57.2457V13.244H53.0577V14.828H55.1457C56.0657 14.828 56.7897 15.052 57.3177 15.5C57.8537 15.948 58.1217 16.584 58.1217 17.408C58.1217 18.24 57.8537 18.88 57.3177 19.328C56.7897 19.776 56.0657 20 55.1457 20H50.9457ZM53.0577 18.332H54.8457C55.2537 18.332 55.5497 18.256 55.7337 18.104C55.9257 17.952 56.0217 17.72 56.0217 17.408C56.0217 17.104 55.9257 16.876 55.7337 16.724C55.5497 16.572 55.2537 16.496 54.8457 16.496H53.0577V18.332Z" fill="#FCF2F8"/>
<path d="M63.2874 20.132C62.4314 20.132 61.6794 19.952 61.0314 19.592C60.3914 19.224 59.8914 18.712 59.5314 18.056C59.1714 17.4 58.9914 16.636 58.9914 15.764C58.9914 14.884 59.1674 14.12 59.5194 13.472C59.8794 12.816 60.3834 12.308 61.0314 11.948C61.6794 11.588 62.4314 11.408 63.2874 11.408C64.1434 11.408 64.8914 11.588 65.5314 11.948C66.1794 12.308 66.6834 12.816 67.0434 13.472C67.4034 14.12 67.5834 14.884 67.5834 15.764C67.5834 16.636 67.4034 17.4 67.0434 18.056C66.6834 18.712 66.1794 19.224 65.5314 19.592C64.8914 19.952 64.1434 20.132 63.2874 20.132ZM63.2874 18.284C63.9114 18.284 64.3994 18.064 64.7514 17.624C65.1114 17.176 65.2914 16.556 65.2914 15.764C65.2914 14.972 65.1154 14.356 64.7634 13.916C64.4114 13.476 63.9194 13.256 63.2874 13.256C62.6554 13.256 62.1634 13.476 61.8114 13.916C61.4594 14.356 61.2834 14.972 61.2834 15.764C61.2834 16.556 61.4594 17.176 61.8114 17.624C62.1634 18.064 62.6554 18.284 63.2874 18.284Z" fill="#FCF2F8"/>
<path d="M68.8871 20V11.54H72.9551C73.9151 11.54 74.6551 11.788 75.1751 12.284C75.7031 12.772 75.9671 13.448 75.9671 14.312C75.9671 15.176 75.7031 15.856 75.1751 16.352C74.6551 16.84 73.9151 17.084 72.9551 17.084H71.0951V20H68.8871ZM71.0951 15.392H72.5711C73.4351 15.392 73.8671 15.032 73.8671 14.312C73.8671 13.592 73.4351 13.232 72.5711 13.232H71.0951V15.392Z" fill="#FCF2F8"/>
<path d="M75.0742 20L79.0342 11.54H80.7742L84.7342 20H82.5262L81.7942 18.284H78.0142L77.2822 20H75.0742ZM79.8862 13.844L78.7342 16.592H81.0622L79.9102 13.844H79.8862Z" fill="#FCF2F8"/>
<path d="M86.1838 20V13.34H83.4958V11.54H91.0798V13.34H88.3918V20H86.1838Z" fill="#FCF2F8"/>
<path d="M95.596 20.132C94.74 20.132 93.988 19.952 93.34 19.592C92.7 19.224 92.2 18.712 91.84 18.056C91.48 17.4 91.3 16.636 91.3 15.764C91.3 14.884 91.476 14.12 91.828 13.472C92.188 12.816 92.692 12.308 93.34 11.948C93.988 11.588 94.74 11.408 95.596 11.408C96.452 11.408 97.2 11.588 97.84 11.948C98.488 12.308 98.992 12.816 99.352 13.472C99.712 14.12 99.892 14.884 99.892 15.764C99.892 16.636 99.712 17.4 99.352 18.056C98.992 18.712 98.488 19.224 97.84 19.592C97.2 19.952 96.452 20.132 95.596 20.132ZM95.596 18.284C96.22 18.284 96.708 18.064 97.06 17.624C97.42 17.176 97.6 16.556 97.6 15.764C97.6 14.972 97.424 14.356 97.072 13.916C96.72 13.476 96.228 13.256 95.596 13.256C94.964 13.256 94.472 13.476 94.12 13.916C93.768 14.356 93.592 14.972 93.592 15.764C93.592 16.556 93.768 17.176 94.12 17.624C94.472 18.064 94.964 18.284 95.596 18.284Z" fill="#FCF2F8"/>
<path d="M101.196 20V11.54H105.264C106.224 11.54 106.964 11.788 107.484 12.284C108.012 12.772 108.276 13.448 108.276 14.312C108.276 15.176 108.012 15.856 107.484 16.352C106.964 16.84 106.224 17.084 105.264 17.084H103.404V20H101.196ZM103.404 15.392H104.88C105.744 15.392 106.176 15.032 106.176 14.312C106.176 13.592 105.744 13.232 104.88 13.232H103.404V15.392Z" fill="#FCF2F8"/>
<path d="M109.305 20V11.54H111.357V16.436L115.233 11.54H116.853V20H114.813V15.092L110.925 20H109.305Z" fill="#FCF2F8"/>
<path d="M117.871 20L119.179 17.6C119.443 17.128 119.787 16.824 120.211 16.688C119.595 16.528 119.123 16.232 118.795 15.8C118.467 15.368 118.303 14.832 118.303 14.192C118.303 13.36 118.563 12.712 119.083 12.248C119.611 11.776 120.351 11.54 121.303 11.54H125.383V20H123.175V16.844H122.635C122.443 16.844 122.271 16.88 122.119 16.952C121.975 17.024 121.855 17.144 121.759 17.312L120.283 20H117.871ZM121.711 15.284H123.175V13.232H121.711C120.839 13.232 120.403 13.572 120.403 14.252C120.403 14.94 120.839 15.284 121.711 15.284Z" fill="#FCF2F8"/>
<path d="M23.4014 38V29.54H25.2374L27.9374 34.388L30.6374 29.54H32.4254V38H30.4334V33.404L28.5014 36.752H27.3014L25.3934 33.452V38H23.4014Z" fill="#FCF2F8"/>
<path d="M32.9628 38L36.9228 29.54H38.6628L42.6228 38H40.4148L39.6828 36.284H35.9028L35.1708 38H32.9628ZM37.7748 31.844L36.6228 34.592H38.9508L37.7988 31.844H37.7748Z" fill="#FCF2F8"/>
<path d="M43.1352 38V29.54H47.2032C48.1632 29.54 48.9032 29.788 49.4232 30.284C49.9512 30.772 50.2152 31.448 50.2152 32.312C50.2152 33.176 49.9512 33.856 49.4232 34.352C48.9032 34.84 48.1632 35.084 47.2032 35.084H45.3432V38H43.1352ZM45.3432 33.392H46.8192C47.6832 33.392 48.1152 33.032 48.1152 32.312C48.1152 31.592 47.6832 31.232 46.8192 31.232H45.3432V33.392Z" fill="#FCF2F8"/>
<path d="M51.2446 38V29.54H53.4526V32.924H54.2926L56.3086 29.54H58.6966L56.2726 33.368C56.8166 33.672 57.2646 34.184 57.6166 34.904L59.1166 38H56.7406L55.6606 35.624C55.5086 35.296 55.3206 35.064 55.0966 34.928C54.8726 34.792 54.5846 34.724 54.2326 34.724H53.4526V38H51.2446Z" fill="#FCF2F8"/>
<path d="M59.8344 38V29.54H65.8104V31.244H61.9464V32.852H65.5344V34.556H61.9464V36.296H65.8104V38H59.8344Z" fill="#FCF2F8"/>
<path d="M69.2561 38V31.34H66.5681V29.54H74.1521V31.34H71.4641V38H69.2561Z" fill="#FCF2F8"/>
<path d="M74.9867 38V29.54H82.7987V38H80.5907V31.34H77.1947V38H74.9867Z" fill="#FCF2F8"/>
<path d="M84.8063 38.228L83.6903 36.656C84.1303 36.4 84.4863 36.088 84.7583 35.72C85.0303 35.344 85.2303 34.872 85.3583 34.304C85.4863 33.728 85.5503 33.008 85.5503 32.144V29.54H91.9823V38H89.7743V31.34H87.5663V32.72C87.5663 34.176 87.3183 35.352 86.8223 36.248C86.3343 37.144 85.6623 37.804 84.8063 38.228Z" fill="#FCF2F8"/>
<path d="M93.5141 38V29.54H99.4901V31.244H95.6261V32.852H99.2141V34.556H95.6261V36.296H99.4901V38H93.5141Z" fill="#FCF2F8"/>
<path d="M100.885 38V29.54H102.937V34.436L106.813 29.54H108.433V38H106.393V33.092L102.505 38H100.885ZM104.641 28.88C104.121 28.88 103.685 28.8 103.333 28.64C102.981 28.472 102.705 28.252 102.505 27.98C102.313 27.708 102.189 27.408 102.133 27.08L103.141 26.756C103.285 27.124 103.473 27.388 103.705 27.548C103.945 27.708 104.265 27.788 104.665 27.788C105.073 27.788 105.393 27.7 105.625 27.524C105.865 27.34 106.041 27.088 106.153 26.768L107.125 27.08C107.005 27.616 106.729 28.052 106.297 28.388C105.873 28.716 105.321 28.88 104.641 28.88Z" fill="#FCF2F8"/>
<path d="M114.251 38.132C113.315 38.132 112.511 37.952 111.839 37.592C111.167 37.232 110.651 36.724 110.291 36.068C109.939 35.412 109.763 34.644 109.763 33.764C109.763 32.884 109.939 32.12 110.291 31.472C110.651 30.816 111.167 30.308 111.839 29.948C112.511 29.588 113.315 29.408 114.251 29.408C114.811 29.408 115.351 29.496 115.871 29.672C116.391 29.84 116.811 30.064 117.131 30.344L116.471 32.084C116.119 31.828 115.767 31.64 115.415 31.52C115.063 31.392 114.703 31.328 114.335 31.328C113.591 31.328 113.031 31.54 112.655 31.964C112.279 32.38 112.091 32.98 112.091 33.764C112.091 34.556 112.279 35.164 112.655 35.588C113.031 36.004 113.591 36.212 114.335 36.212C114.703 36.212 115.063 36.152 115.415 36.032C115.767 35.904 116.119 35.712 116.471 35.456L117.131 37.196C116.811 37.476 116.391 37.704 115.871 37.88C115.351 38.048 114.811 38.132 114.251 38.132Z" fill="#FCF2F8"/>
<path d="M122.133 38.132C121.277 38.132 120.525 37.952 119.877 37.592C119.237 37.224 118.737 36.712 118.377 36.056C118.017 35.4 117.837 34.636 117.837 33.764C117.837 32.884 118.013 32.12 118.365 31.472C118.725 30.816 119.229 30.308 119.877 29.948C120.525 29.588 121.277 29.408 122.133 29.408C122.989 29.408 123.737 29.588 124.377 29.948C125.025 30.308 125.529 30.816 125.889 31.472C126.249 32.12 126.429 32.884 126.429 33.764C126.429 34.636 126.249 35.4 125.889 36.056C125.529 36.712 125.025 37.224 124.377 37.592C123.737 37.952 122.989 38.132 122.133 38.132ZM122.133 36.284C122.757 36.284 123.245 36.064 123.597 35.624C123.957 35.176 124.137 34.556 124.137 33.764C124.137 32.972 123.961 32.356 123.609 31.916C123.257 31.476 122.765 31.256 122.133 31.256C121.501 31.256 121.009 31.476 120.657 31.916C120.305 32.356 120.129 32.972 120.129 33.764C120.129 34.556 120.305 35.176 120.657 35.624C121.009 36.064 121.501 36.284 122.133 36.284Z" fill="#FCF2F8"/>
<path d="M127.733 38V29.54H131.813C132.725 29.54 133.429 29.74 133.925 30.14C134.429 30.532 134.681 31.06 134.681 31.724C134.681 32.164 134.569 32.548 134.345 32.876C134.129 33.204 133.825 33.448 133.433 33.608C133.905 33.752 134.269 33.996 134.525 34.34C134.781 34.676 134.909 35.096 134.909 35.6C134.909 36.344 134.641 36.932 134.105 37.364C133.577 37.788 132.853 38 131.933 38H127.733ZM129.845 32.9H131.417C131.817 32.9 132.109 32.828 132.293 32.684C132.485 32.54 132.581 32.32 132.581 32.024C132.581 31.728 132.485 31.512 132.293 31.376C132.109 31.232 131.817 31.16 131.417 31.16H129.845V32.9ZM129.845 36.38H131.633C132.041 36.38 132.337 36.304 132.521 36.152C132.713 35.992 132.809 35.756 132.809 35.444C132.809 35.132 132.713 34.9 132.521 34.748C132.337 34.596 132.041 34.52 131.633 34.52H129.845V36.38Z" fill="#FCF2F8"/>
<path fill-rule="evenodd" clip-rule="evenodd" d="M17.1855 7.82131C16.3376 8.26886 16.1208 9.38209 16.7271 10.1759L16.9905 10.5209L9.23431 18.2926C0.991961 26.5515 1.05962 26.4782 0.518272 27.7273C0.109607 28.67 -0.0377935 29.5327 0.00804495 30.7134C0.0532976 31.8787 0.202382 32.4867 0.681342 33.4589C1.43116 34.981 2.73045 36.1796 4.3192 36.8152C5.19401 37.1651 5.72372 37.2586 6.83109 37.2586C7.95186 37.2586 8.42635 37.1729 9.41312 36.7925C10.6712 36.3074 10.5415 36.4265 18.9539 28.0277C26.6558 20.3382 26.7582 20.2395 26.8903 20.3855C27.0923 20.6087 27.7329 20.9027 28.0171 20.9027C28.9176 20.9027 29.6405 20.1799 29.6405 19.2795C29.6405 18.6801 29.5058 18.5307 24.0592 13.0904C20.4248 9.46028 18.7572 7.84276 18.5676 7.76405C18.1584 7.59398 17.5699 7.61836 17.1855 7.82131ZM21.9152 15.4116L24.5505 18.0473L22.464 20.1413C21.3165 21.2929 20.2716 22.2814 20.1419 22.3377C19.8704 22.4559 19.1717 22.4726 18.8126 22.3696C18.6772 22.3309 18.1502 22.0699 17.6415 21.7898C16.152 20.97 15.1475 20.7593 13.8945 21.0042C13.2839 21.1236 12.8639 21.3057 11.4191 22.0773C10.8521 22.3801 10.7627 22.4053 10.1743 22.4275L9.54039 22.4515L11.9519 20.0343L14.3634 17.6171L14.777 18C15.4182 18.5936 15.9941 18.7047 16.6738 18.366C16.9475 18.2296 17.1236 18.0762 17.2685 17.8478C17.7089 17.1535 17.6153 16.4942 16.982 15.8293L16.578 15.4051L17.8913 14.0905C18.6135 13.3675 19.2214 12.7759 19.2422 12.7759C19.263 12.7759 20.4658 13.962 21.9152 15.4116ZM12.8559 24.8691C13.3407 24.9911 13.8452 25.5055 13.9635 25.9985C14.1362 26.7182 13.8147 27.4108 13.1555 27.7392C12.5138 28.059 11.8699 27.9572 11.3695 27.4568C10.8691 26.9565 10.7673 26.3127 11.0871 25.671C11.2925 25.2589 11.6646 24.9541 12.0839 24.8547C12.4286 24.7729 12.4779 24.7739 12.8559 24.8691ZM6.92284 29.6799C8.08666 30.2766 7.99887 31.9935 6.77851 32.5032C5.7976 32.9129 4.67097 32.1521 4.67097 31.08C4.67097 29.8714 5.85757 29.1336 6.92284 29.6799Z" fill="#F4F2F4"/>
<circle cx="29" cy="10" r="4" fill="#BE46D1"/>
<circle cx="22.5" cy="2.5" r="2.5" fill="#0077C8"/>
<circle cx="16.5" cy="17.5" r="2.5" fill="#D14114"/>
<circle cx="7" cy="30" r="3" fill="#F9D423"/>
<path fill-rule="evenodd" clip-rule="evenodd" d="M7.47838 28.5202C7.4751 28.5291 7.47009 28.5463 7.46723 28.5584C7.46437 28.5706 7.45166 28.6148 7.43898 28.6566C7.42629 28.6985 7.39898 28.7905 7.37828 28.861C7.35757 28.9316 7.32999 29.0252 7.31697 29.0691C7.30395 29.1129 7.28595 29.1741 7.27697 29.205C7.26799 29.2359 7.25086 29.294 7.23892 29.3343C7.22697 29.3745 7.2073 29.4415 7.1952 29.4832C7.1831 29.5249 7.16343 29.5919 7.15148 29.6322C7.13954 29.6724 7.12242 29.7306 7.11345 29.7615C7.10448 29.7924 7.09105 29.8379 7.0836 29.8627C7.07616 29.8875 7.05897 29.9457 7.04541 29.992C7.03184 30.0384 7.00321 30.1358 6.98179 30.2085C6.96036 30.2811 6.92464 30.4026 6.90241 30.4783C6.88017 30.5541 6.84263 30.6818 6.81898 30.7622C6.79533 30.8426 6.77176 30.9229 6.76661 30.9406C6.76145 30.9584 6.7561 30.9732 6.75472 30.9736C6.75193 30.9744 6.74419 30.9286 6.73923 30.882C6.73294 30.8227 6.72881 30.7858 6.72433 30.7487C6.72183 30.728 6.71826 30.6969 6.71638 30.6796C6.7145 30.6623 6.71136 30.6335 6.7094 30.6155C6.70743 30.5975 6.70417 30.5675 6.70215 30.5488C6.70012 30.5301 6.69666 30.5002 6.69447 30.4822C6.68706 30.4218 6.6828 30.3837 6.66471 30.2157C6.66247 30.195 6.65892 30.1645 6.65681 30.1479C6.65471 30.1314 6.65115 30.1009 6.64892 30.0801C6.64668 30.0594 6.64338 30.0288 6.64159 30.0122C6.63979 29.9956 6.63644 29.9662 6.63413 29.9469C6.63182 29.9276 6.62848 29.8982 6.62672 29.8815C6.62495 29.8649 6.62146 29.8378 6.61898 29.8213L6.61445 29.7913L6.56981 29.7869C6.54525 29.7845 6.4657 29.7786 6.39302 29.7738C6.32034 29.769 6.19065 29.7602 6.10481 29.7542C6.01897 29.7483 5.88091 29.7388 5.798 29.7331C5.61389 29.7205 5.59715 29.7193 5.58365 29.7179C5.55134 29.7144 5.54603 29.7172 5.53503 29.7429C5.52919 29.7566 5.52343 29.7704 5.52221 29.7735C5.52099 29.7767 5.51587 29.7886 5.51083 29.7999C5.50578 29.8112 5.49933 29.8269 5.49648 29.8348C5.48993 29.853 5.48228 29.8717 5.43947 29.9743C5.42034 30.0201 5.40192 30.0647 5.39853 30.0734C5.39515 30.0821 5.37252 30.1371 5.34825 30.1957C5.29211 30.3313 5.2886 30.3399 5.27928 30.3643C5.27504 30.3754 5.2566 30.4199 5.23831 30.4633C5.22003 30.5066 5.1825 30.5971 5.15491 30.6643C5.12732 30.7315 5.07993 30.8468 5.04961 30.9204C5.01929 30.994 4.96978 31.1145 4.93958 31.1881C4.90938 31.2617 4.8602 31.3814 4.83029 31.4541C4.80039 31.5269 4.75487 31.6377 4.72916 31.7004L4.68239 31.8145L4.69564 31.8403C4.70293 31.8545 4.71282 31.8733 4.71763 31.882C4.72243 31.8906 4.73842 31.9202 4.75315 31.9475C4.76788 31.9749 4.78848 32.0113 4.79891 32.0285C4.83794 32.0926 4.88237 32.1617 4.88698 32.1654C4.8896 32.1676 4.89506 32.1754 4.8991 32.1829C4.90314 32.1904 4.91103 32.2022 4.91663 32.2093C4.92224 32.2163 4.93356 32.2319 4.9418 32.244C4.95005 32.256 4.96452 32.2754 4.97396 32.2871C4.98341 32.2988 4.99778 32.3171 5.0059 32.3278C5.02461 32.3523 5.14598 32.4915 5.17243 32.5188C5.23566 32.584 5.24862 32.597 5.25188 32.5985C5.25386 32.5994 5.26364 32.609 5.27362 32.6198C5.28359 32.6307 5.29339 32.6391 5.29539 32.6386C5.2974 32.6381 5.29964 32.6399 5.30039 32.6427C5.3022 32.6495 5.36886 32.707 5.3732 32.7056C5.37509 32.7049 5.39156 32.6673 5.40981 32.622C5.42805 32.5766 5.47772 32.4545 5.52016 32.3505C5.56261 32.2466 5.62177 32.1014 5.65162 32.0279C5.68147 31.9544 5.72416 31.8497 5.74648 31.7953C5.7688 31.7409 5.81745 31.6218 5.85458 31.5307C5.9729 31.2404 5.98045 31.2225 5.98532 31.2212C5.98821 31.2204 5.99097 31.2283 5.99233 31.2413C5.99564 31.2729 6.00227 31.3279 6.0079 31.3705C6.01063 31.3911 6.01459 31.4227 6.01671 31.4407C6.01882 31.4586 6.02278 31.4902 6.02551 31.5108C6.02824 31.5314 6.03246 31.5653 6.03488 31.586C6.0373 31.6067 6.04151 31.6405 6.04424 31.6611C6.04919 31.6986 6.05338 31.7326 6.06123 31.799C6.06564 31.8364 6.07266 31.892 6.08019 31.9493C6.08272 31.9685 6.08678 32.0013 6.08922 32.022C6.09769 32.0939 6.10154 32.1251 6.10691 32.1648C6.10988 32.1868 6.11412 32.2195 6.11633 32.2374C6.11856 32.2553 6.12246 32.2869 6.12503 32.3076C6.12759 32.3282 6.1316 32.3621 6.13394 32.3828C6.13627 32.4036 6.14027 32.4351 6.14281 32.453C6.14536 32.4708 6.14799 32.4937 6.14865 32.5038C6.14964 32.5189 6.15158 32.5223 6.15969 32.5233C6.16985 32.5245 6.31822 32.5349 6.42866 32.5421C6.44319 32.5431 6.46698 32.5446 6.48153 32.5456C6.49607 32.5466 6.57691 32.5518 6.66116 32.5572C6.74542 32.5626 6.84295 32.5691 6.8779 32.5717C6.91285 32.5742 6.94849 32.5764 6.9571 32.5766C6.9657 32.5767 7.03147 32.5809 7.10325 32.5858C7.22392 32.5941 7.23413 32.594 7.23886 32.5848C7.24426 32.5743 7.26106 32.5196 7.30855 32.3581C7.32447 32.304 7.34315 32.2407 7.35007 32.2175C7.37523 32.1331 7.69217 31.0627 7.74061 30.8985C7.76798 30.8057 7.79992 30.6981 7.81158 30.6594C7.82325 30.6206 7.83837 30.57 7.84519 30.5468C7.88764 30.4024 7.8969 30.3724 7.89916 30.3718C7.90171 30.3711 7.90492 30.3898 7.91534 30.4658C7.91853 30.4892 7.9239 30.5274 7.92727 30.5507C7.93716 30.6192 8.00046 30.8681 8.0216 30.9216C8.07003 31.0441 8.09717 31.0979 8.15737 31.1907C8.17153 31.2126 8.18613 31.2343 8.18981 31.239C8.21698 31.2739 8.2262 31.285 8.24795 31.3092C8.27453 31.3388 8.33415 31.3962 8.35083 31.4083C8.45891 31.4868 8.51165 31.5157 8.61245 31.5516C8.7412 31.5974 8.94565 31.6204 9.08236 31.6045C9.12538 31.5995 9.33849 31.544 9.36631 31.5306C9.46038 31.4853 9.4856 31.4716 9.54074 31.4356C9.56627 31.419 9.5915 31.402 9.59681 31.3978C9.60212 31.3936 9.61085 31.387 9.6162 31.383C9.64269 31.3633 9.75267 31.2657 9.77721 31.2402C9.81897 31.1967 9.89711 31.1068 9.92573 31.0694C9.96798 31.0142 9.97156 31.0089 9.97012 31.0035C9.96935 31.0006 9.97101 30.9894 9.9738 30.9785C9.9766 30.9676 9.97831 30.9566 9.97761 30.954C9.97691 30.9514 9.97798 30.9389 9.97997 30.9263C9.98197 30.9137 9.98422 30.895 9.98497 30.8849C9.9864 30.8657 9.98801 30.8509 9.99094 30.8302C9.99189 30.8235 9.99375 30.7945 9.99508 30.7656C9.99641 30.7368 9.99795 30.7084 9.9985 30.7026C10.0029 30.6553 9.99937 30.4743 9.99199 30.3703C9.98653 30.2935 9.97919 30.2623 9.87601 29.8779C9.78653 29.5445 9.76604 29.473 9.75012 29.4382C9.72328 29.3796 9.71897 29.3714 9.71554 29.3725C9.71386 29.3731 9.69994 29.4095 9.6846 29.4535C9.65513 29.5381 9.64556 29.5637 9.59385 29.696C9.43645 30.0989 9.26056 30.3965 9.12688 30.4863C9.0954 30.5075 9.03016 30.524 8.99912 30.5187C8.92997 30.507 8.86719 30.4424 8.82225 30.3368C8.80434 30.2947 8.74601 30.07 8.73677 30.0075C8.72004 29.8945 8.71377 29.8434 8.70934 29.7844C8.70808 29.7677 8.70584 29.7426 8.70438 29.7288C8.70195 29.7059 8.70009 29.6805 8.69656 29.6221C8.69589 29.6109 8.6945 29.5891 8.69349 29.5737C8.69248 29.5583 8.69134 29.5353 8.69095 29.5226C8.69056 29.5099 8.68974 29.4903 8.68912 29.4791C8.68503 29.4049 8.68341 29.3424 8.68188 29.1988C8.68093 29.1093 8.67999 29.028 8.67979 29.0181C8.67945 29.0009 8.67955 28.9524 8.6802 28.825C8.68085 28.6993 8.68102 28.672 8.68142 28.6349C8.68165 28.6137 8.68003 28.5923 8.67782 28.5872C8.67442 28.5794 8.63542 28.5757 8.42718 28.563C8.29154 28.5547 8.17865 28.5469 8.17631 28.5455C8.17397 28.5442 8.1671 28.5444 8.16104 28.546C8.15498 28.5476 8.1481 28.5472 8.14574 28.5449C8.14338 28.5427 8.13626 28.5423 8.12991 28.544C8.12357 28.5457 8.11644 28.5453 8.11408 28.5431C8.11172 28.5408 8.1046 28.5404 8.09826 28.5421C8.09191 28.5438 8.08479 28.5434 8.08243 28.5412C8.08007 28.539 8.07295 28.5385 8.0666 28.5402C8.06026 28.5419 8.05313 28.5415 8.05077 28.5393C8.04842 28.5371 8.04129 28.5367 8.03495 28.5384C8.0286 28.5401 8.02148 28.5396 8.01912 28.5374C8.01676 28.5352 8.00964 28.5348 8.00329 28.5365C7.99695 28.5382 7.98982 28.5378 7.98747 28.5356C7.98511 28.5333 7.97798 28.5329 7.97164 28.5346C7.96529 28.5363 7.95817 28.5359 7.95581 28.5337C7.95345 28.5315 7.94633 28.531 7.93998 28.5327C7.93364 28.5344 7.92651 28.534 7.92416 28.5318C7.9218 28.5296 7.91498 28.5291 7.90901 28.5307C7.90304 28.5323 7.89557 28.5322 7.89242 28.5306C7.88926 28.529 7.79888 28.5225 7.69156 28.5163C7.58424 28.5101 7.49371 28.5048 7.49039 28.5045C7.48706 28.5042 7.48166 28.5113 7.47838 28.5202Z" fill="#292929"/>
</svg>
