<svg width="123" height="127" viewBox="0 0 123 127" fill="none" xmlns="http://www.w3.org/2000/svg">
<rect x="122.275" y="43.3135" width="71.6582" height="85.9899" rx="15" transform="rotate(120 122.275 43.3135)" fill="url(#paint0_linear_351_3656)"/>
<rect x="108.537" y="60.109" width="64.6582" height="78.9899" rx="11.5" transform="rotate(120 108.537 60.109)" fill="url(#paint1_linear_351_3656)"/>
<rect x="108.537" y="60.109" width="64.6582" height="78.9899" rx="11.5" transform="rotate(120 108.537 60.109)" stroke="url(#paint2_linear_351_3656)" stroke-width="7"/>
<rect x="108.537" y="60.109" width="64.6582" height="78.9899" rx="11.5" transform="rotate(120 108.537 60.109)" stroke="url(#paint3_linear_351_3656)" stroke-width="7"/>
<path d="M48.7297 91.0713C35.5621 96.7492 20.2496 79.7143 19.7931 78.0106C18.8165 74.366 23.1092 69.6023 38.2657 65.5411C53.4222 61.4799 66.9214 61.357 69.4814 70.9111C72.0414 80.4651 63.8862 87.0101 48.7297 91.0713Z" fill="#F72F56"/>
<path d="M37.6875 50.1166C36.8603 48.6838 36.4382 47.2493 36.4214 45.8128C36.4258 44.382 36.8093 43.0448 37.5718 41.8011C38.3343 40.5575 39.4535 39.5096 40.9295 38.6574C42.4191 37.7974 43.8823 37.3454 45.3193 37.3013C46.7776 37.2628 48.1245 37.6099 49.3601 38.3427C50.5956 39.0755 51.627 40.1583 52.4542 41.591C53.2814 43.0238 53.6995 44.4516 53.7086 45.8747C53.7255 47.3111 53.3526 48.6511 52.5901 49.8947C51.8412 51.1305 50.7219 52.1784 49.2324 53.0384C47.7564 53.8906 46.2893 54.3359 44.831 54.3745C43.3728 54.413 42.0191 54.0698 40.77 53.3448C39.5422 52.6254 38.5147 51.5493 37.6875 50.1166ZM40.8155 48.3106C41.4185 49.355 42.2624 49.9568 43.3474 50.116C44.4536 50.2808 45.677 49.9761 47.0175 49.2022C48.3581 48.4282 49.2307 47.5316 49.6353 46.5124C50.0399 45.4933 49.9369 44.4548 49.3261 43.397C48.7154 42.3392 47.8676 41.7307 46.7827 41.5715C45.6977 41.4123 44.485 41.7197 43.1444 42.4937C41.8038 43.2677 40.9245 44.1682 40.5063 45.1951C40.1017 46.2143 40.2048 47.2528 40.8155 48.3106Z" fill="white"/>
<path d="M42.9319 58.6843L45.674 57.1012L58.023 58.8357L54.1847 52.1875L57.2518 50.4167L63.5601 61.3431L60.818 62.9262L48.469 61.1917L52.4813 68.1411L49.4142 69.9119L42.9319 58.6843Z" fill="white"/>
<path d="M53.9493 78.2829C53.1221 76.8502 52.7001 75.4156 52.6833 73.9792C52.6877 72.5483 53.0711 71.2111 53.8336 69.9675C54.5961 68.7238 55.7154 67.6759 57.1914 66.8238C58.6809 65.9638 60.1442 65.5117 61.5812 65.4677C63.0394 65.4291 64.3863 65.7763 65.6219 66.5091C66.8574 67.2418 67.8888 68.3246 68.716 69.7574C69.5432 71.1901 69.9614 72.618 69.9705 74.041C69.9873 75.4774 69.6145 76.8174 68.852 78.0611C68.103 79.2969 66.9838 80.3448 65.4943 81.2048C64.0183 82.0569 62.5511 82.5023 61.0929 82.5408C59.6346 82.5793 58.2809 82.2361 57.0318 81.5111C55.804 80.7917 54.7765 79.7157 53.9493 78.2829ZM57.0773 76.477C57.6803 77.5214 58.5243 78.1232 59.6092 78.2824C60.7154 78.4471 61.9388 78.1425 63.2794 77.3685C64.62 76.5945 65.4926 75.6979 65.8972 74.6788C66.3018 73.6596 66.1987 72.6211 65.588 71.5633C64.9773 70.5055 64.1294 69.897 63.0445 69.7378C61.9596 69.5786 60.7468 69.8861 59.4063 70.66C58.0657 71.434 57.1863 72.3345 56.7681 73.3615C56.3635 74.3806 56.4666 75.4191 57.0773 76.477Z" fill="white"/>
<path d="M59.584 87.5265L73.9038 79.2589L75.4693 81.9704L71.0205 93.2157L79.2265 88.478L81.1978 91.8925L66.878 100.16L65.3241 97.4687L69.7729 86.2233L61.5669 90.961L59.584 87.5265Z" fill="white"/>
<defs>
<linearGradient id="paint0_linear_351_3656" x1="136.837" y1="43.108" x2="136.055" y2="129.467" gradientUnits="userSpaceOnUse">
<stop stop-color="#1647A8"/>
<stop offset="0.15625" stop-color="#043562"/>
<stop offset="0.758565" stop-color="#13366A"/>
<stop offset="0.833789" stop-color="#031F66"/>
<stop offset="0.91676" stop-color="#0F244F"/>
<stop offset="1" stop-color="#173A6D"/>
</linearGradient>
<linearGradient id="paint1_linear_351_3656" x1="149.147" y1="58.8279" x2="149.147" y2="144.818" gradientUnits="userSpaceOnUse">
<stop stop-color="#0077C8"/>
<stop offset="0.831735" stop-color="#1E5588"/>
<stop offset="1" stop-color="#01438F"/>
</linearGradient>
<linearGradient id="paint2_linear_351_3656" x1="178.848" y1="61.5438" x2="119.862" y2="142.417" gradientUnits="userSpaceOnUse">
<stop offset="0.557292" stop-color="#183D5F"/>
<stop offset="0.925805" stop-color="#1F66A8"/>
<stop offset="1" stop-color="#133466"/>
</linearGradient>
<linearGradient id="paint3_linear_351_3656" x1="121.482" y1="45.1128" x2="148.966" y2="84.7031" gradientUnits="userSpaceOnUse">
<stop stop-color="white" stop-opacity="0.4"/>
<stop offset="1" stop-color="white" stop-opacity="0"/>
</linearGradient>
</defs>
</svg>
