<svg width="20" height="20" viewBox="0 0 20 20" fill="none" xmlns="http://www.w3.org/2000/svg">
<path fill-rule="evenodd" clip-rule="evenodd" d="M8.98661 1.63159C4.92441 1.63159 1.63135 4.92466 1.63135 8.98686C1.63135 13.0491 4.92441 16.3421 8.98661 16.3421C13.0488 16.3421 16.3419 13.0491 16.3419 8.98686C16.3419 4.92466 13.0488 1.63159 8.98661 1.63159ZM0.131348 8.98686C0.131348 4.09623 4.09598 0.131592 8.98661 0.131592C13.8772 0.131592 17.8419 4.09623 17.8419 8.98686C17.8419 13.8775 13.8772 17.8421 8.98661 17.8421C4.09598 17.8421 0.131348 13.8775 0.131348 8.98686Z" fill="#0077C8"/>
<path fill-rule="evenodd" clip-rule="evenodd" d="M14.5351 14.5356C14.828 14.2427 15.3029 14.2427 15.5958 14.5356L19.6484 18.5882C19.9413 18.8811 19.9413 19.356 19.6484 19.6489C19.3555 19.9418 18.8806 19.9418 18.5877 19.6489L14.5351 15.5962C14.2422 15.3034 14.2422 14.8285 14.5351 14.5356Z" fill="#0077C8"/>
</svg>
