<svg width="20" height="18" viewBox="0 0 20 18" fill="none" xmlns="http://www.w3.org/2000/svg">
<path d="M19.9909 1.10961C20.0298 0.876482 19.9423 0.640211 19.761 0.488596C19.5797 0.336982 19.3317 0.29269 19.1091 0.37218L0.442449 7.03885C0.190945 7.12867 0.0173155 7.35991 0.00121827 7.62649C-0.014879 7.89307 0.129663 8.14353 0.36853 8.26296L5.70186 10.9296C5.91584 11.0366 6.17075 11.0207 6.36981 10.888L10.797 7.93658L8.14609 11.2502C8.02937 11.3961 7.97923 11.5843 8.0079 11.769C8.03657 11.9536 8.1414 12.1177 8.29687 12.2214L16.2969 17.5547C16.4851 17.6802 16.7241 17.7017 16.9317 17.6117C17.1393 17.5218 17.2871 17.3327 17.3243 17.1096L19.9909 1.10961Z" fill="#0077C8"/>
</svg>
