<svg width="115" height="114" viewBox="0 0 115 114" fill="none" xmlns="http://www.w3.org/2000/svg">
<rect y="43.7958" width="67.7888" height="81.3466" rx="15" transform="rotate(-31 0 43.7958)" fill="url(#paint0_linear_351_3679)"/>
<rect x="19.3291" y="36.265" width="60.7888" height="74.3466" rx="11.5" transform="rotate(-31 19.3291 36.265)" fill="url(#paint1_linear_351_3679)"/>
<rect x="19.3291" y="36.265" width="60.7888" height="74.3466" rx="11.5" transform="rotate(-31 19.3291 36.265)" stroke="url(#paint2_linear_351_3679)" stroke-width="7"/>
<rect x="19.3291" y="36.265" width="60.7888" height="74.3466" rx="11.5" transform="rotate(-31 19.3291 36.265)" stroke="url(#paint3_linear_351_3679)" stroke-width="7"/>
<path d="M54.6291 68.2361L40.6357 56.3862L44.6215 54.085L53.1483 61.6565L51.109 50.3395L53.8651 48.7482L62.6081 56.4493L60.3526 45.0027L64.1052 42.8361L67.3284 60.9041L64.2119 62.7034L55.8206 55.5625L57.7456 66.4368L54.6291 68.2361Z" fill="white"/>
<path d="M74.3021 56.8779L65.6726 41.9312L72.8809 37.7695C74.4922 36.8392 75.94 36.4745 77.2243 36.6752C78.5146 36.8537 79.4984 37.5295 80.1757 38.7026C80.6245 39.48 80.8183 40.2726 80.7571 41.0806C80.7101 41.8804 80.4219 42.6216 79.8925 43.3041C80.8733 43.0771 81.7653 43.1369 82.5685 43.4835C83.3635 43.816 84.0181 44.4275 84.5321 45.3179C85.2911 46.6324 85.4173 47.9446 84.911 49.2546C84.4107 50.5423 83.3478 51.6553 81.7224 52.5937L74.3021 56.8779ZM72.8313 45.7132L75.6086 44.1097C76.3153 43.7017 76.7577 43.2766 76.9359 42.8345C77.1283 42.3843 77.0735 41.8976 76.7715 41.3747C76.4696 40.8517 76.0797 40.568 75.6017 40.5236C75.1298 40.4569 74.5404 40.6275 73.8337 41.0355L71.0564 42.639L72.8313 45.7132ZM76.381 51.8614L79.5399 50.0376C80.2607 49.6215 80.7062 49.1852 80.8762 48.729C81.0522 48.2505 80.9811 47.7356 80.6629 47.1844C80.3446 46.6332 79.9384 46.3212 79.4441 46.2485C78.964 46.1676 78.3635 46.3353 77.6427 46.7515L74.4837 48.5753L76.381 51.8614Z" fill="white"/>
<defs>
<linearGradient id="paint0_linear_351_3679" x1="13.7754" y1="43.6014" x2="13.0356" y2="125.297" gradientUnits="userSpaceOnUse">
<stop stop-color="#831285"/>
<stop offset="0.15625" stop-color="#460547"/>
<stop offset="0.758565" stop-color="#520E53"/>
<stop offset="0.833789" stop-color="#48034E"/>
<stop offset="0.91676" stop-color="#380B39"/>
<stop offset="1" stop-color="#511152"/>
</linearGradient>
<linearGradient id="paint1_linear_351_3679" x1="48.4208" y1="35.0675" x2="48.4208" y2="116.414" gradientUnits="userSpaceOnUse">
<stop stop-color="#E859FF"/>
<stop offset="0.831735" stop-color="#601B6B"/>
<stop offset="1" stop-color="#66005C"/>
</linearGradient>
<linearGradient id="paint2_linear_351_3679" x1="76.5174" y1="37.6367" x2="20.7165" y2="114.143" gradientUnits="userSpaceOnUse">
<stop offset="0.670529" stop-color="#46154A"/>
<stop offset="0.925805" stop-color="#571476"/>
<stop offset="1" stop-color="#3B153C"/>
</linearGradient>
<linearGradient id="paint3_linear_351_3679" x1="22.2489" y1="22.093" x2="48.249" y2="59.5455" gradientUnits="userSpaceOnUse">
<stop stop-color="white" stop-opacity="0.4"/>
<stop offset="1" stop-color="white" stop-opacity="0"/>
</linearGradient>
</defs>
</svg>
