<svg width="107" height="110" viewBox="0 0 107 110" fill="none" xmlns="http://www.w3.org/2000/svg">
<rect x="106.723" y="22.0547" width="88.4959" height="85.2129" rx="15" transform="rotate(105 106.723 22.0547)" fill="url(#paint0_linear_351_3661)"/>
<rect x="97.8413" y="41.6773" width="64.0107" height="78.2129" rx="11.5" transform="rotate(105 97.8413 41.6773)" fill="url(#paint1_linear_351_3661)"/>
<rect x="97.8413" y="41.6773" width="64.0107" height="78.2129" rx="11.5" transform="rotate(105 97.8413 41.6773)" stroke="url(#paint2_linear_351_3661)" stroke-width="7"/>
<rect x="97.8413" y="41.6773" width="64.0107" height="78.2129" rx="11.5" transform="rotate(105 97.8413 41.6773)" stroke="url(#paint3_linear_351_3661)" stroke-width="7"/>
<circle cx="51.3098" cy="62.3784" r="27.5306" transform="rotate(-15 51.3098 62.3784)" fill="#E9C74C"/>
<path fill-rule="evenodd" clip-rule="evenodd" d="M54.0683 42.951C54.0365 43.037 53.988 43.2035 53.9604 43.3211C53.9328 43.4387 53.8098 43.866 53.6872 44.2707C53.5645 44.6754 53.3004 45.5649 53.1002 46.2474C52.9 46.9298 52.6332 47.8351 52.5074 48.2592C52.3815 48.6832 52.2074 49.2746 52.1205 49.5733C52.0336 49.872 51.8681 50.4347 51.7525 50.8237C51.637 51.2128 51.4468 51.8609 51.3298 52.2641C51.2128 52.6673 51.0225 53.3155 50.907 53.7045C50.7915 54.0936 50.626 54.6562 50.5392 54.9549C50.4525 55.2536 50.3226 55.6941 50.2506 55.9337C50.1786 56.1733 50.0124 56.7362 49.8812 57.1845C49.75 57.6328 49.4732 58.5746 49.266 59.2774C49.0588 59.9802 48.7134 61.1545 48.4984 61.887C48.2834 62.6194 47.9204 63.8547 47.6917 64.6322C47.463 65.4096 47.235 66.1862 47.1852 66.3579C47.1353 66.5296 47.0836 66.6731 47.0702 66.6767C47.0432 66.6839 46.9684 66.241 46.9204 65.7903C46.8596 65.2175 46.8196 64.8605 46.7763 64.5018C46.7522 64.3017 46.7176 64.0011 46.6994 63.8338C46.6813 63.6666 46.6509 63.3873 46.6319 63.2134C46.6129 63.0395 46.5814 62.7493 46.5618 62.5686C46.5422 62.388 46.5088 62.0983 46.4875 61.925C46.4159 61.3403 46.3748 60.9719 46.1998 59.3478C46.1781 59.1471 46.1438 58.852 46.1234 58.6922C46.103 58.5324 46.0687 58.2374 46.047 58.0366C46.0254 57.8358 45.9935 57.5401 45.9762 57.3795C45.9588 57.2189 45.9264 56.9346 45.904 56.7478C45.8817 56.561 45.8495 56.2766 45.8324 56.116C45.8153 55.9553 45.7816 55.6932 45.7575 55.5335L45.7138 55.2432L45.282 55.2011C45.0446 55.178 44.2753 55.121 43.5725 55.0745C42.8696 55.028 41.6154 54.9428 40.7853 54.885C39.9552 54.8273 38.6201 54.7353 37.8184 54.6805C36.038 54.5589 35.8762 54.5475 35.7456 54.5334C35.4332 54.4998 35.3817 54.5263 35.2754 54.7756C35.2189 54.9078 35.1632 55.041 35.1514 55.0717C35.1396 55.1024 35.0901 55.2171 35.0413 55.3265C34.9925 55.436 34.9302 55.5879 34.9027 55.6642C34.8393 55.8401 34.7653 56.0209 34.3513 57.0126C34.1663 57.4557 33.9882 57.8871 33.9554 57.9711C33.9227 58.055 33.7039 58.5876 33.4692 59.1545C32.9263 60.4657 32.8923 60.5488 32.8023 60.7843C32.7612 60.8917 32.5829 61.3226 32.4061 61.7418C32.2292 62.161 31.8663 63.0357 31.5995 63.6856C31.3327 64.3356 30.8745 65.4499 30.5813 66.162C30.288 66.8741 29.8092 68.039 29.5172 68.7508C29.2251 69.4626 28.7496 70.6203 28.4604 71.3235C28.1712 72.0267 27.731 73.0984 27.4823 73.705L27.0301 74.808L27.1582 75.0581C27.2287 75.1956 27.3244 75.3768 27.3709 75.4607C27.4173 75.5447 27.5719 75.83 27.7144 76.0948C27.8568 76.3596 28.056 76.7119 28.1569 76.8777C28.5343 77.4974 28.964 78.1655 29.0086 78.202C29.0339 78.2227 29.0867 78.2987 29.1257 78.3709C29.1648 78.4431 29.2411 78.5578 29.2953 78.6259C29.3495 78.694 29.459 78.845 29.5387 78.9614C29.6184 79.0777 29.7584 79.2656 29.8497 79.3788C29.941 79.4921 30.08 79.6689 30.1585 79.7718C30.3394 80.0089 31.5132 81.3551 31.7689 81.619C32.3804 82.2498 32.5057 82.3755 32.5372 82.3897C32.5564 82.3983 32.651 82.4913 32.7475 82.5963C32.8439 82.7013 32.9387 82.7829 32.958 82.7777C32.9774 82.7725 32.9991 82.7902 33.0063 82.8171C33.0239 82.8827 33.6685 83.4393 33.7105 83.4251C33.7287 83.419 33.888 83.0552 34.0645 82.6167C34.2409 82.1782 34.7212 80.9969 35.1316 79.9918C35.5421 78.9866 36.1142 77.5826 36.4029 76.8717C36.6915 76.1608 37.1044 75.1488 37.3202 74.6227C37.536 74.0966 38.0065 72.9452 38.3656 72.064C39.5098 69.2564 39.5828 69.0836 39.6298 69.071C39.6578 69.0635 39.6845 69.1401 39.6976 69.2656C39.7296 69.5713 39.7938 70.1032 39.8482 70.5148C39.8746 70.7144 39.9129 71.0196 39.9334 71.1931C39.9538 71.3667 39.9921 71.6719 40.0185 71.8715C40.0449 72.071 40.0857 72.3981 40.1091 72.5984C40.1325 72.7987 40.1732 73.1258 40.1996 73.3253C40.2475 73.6873 40.288 74.0159 40.3639 74.6585C40.4066 75.02 40.4744 75.5576 40.5473 76.1118C40.5717 76.298 40.611 76.6143 40.6346 76.8145C40.7165 77.5107 40.7537 77.8116 40.8056 78.196C40.8343 78.4087 40.8754 78.7244 40.8968 78.8977C40.9183 79.071 40.9561 79.3764 40.9809 79.5763C41.0056 79.7763 41.0444 80.1039 41.067 80.3044C41.0896 80.505 41.1283 80.8101 41.1529 80.9825C41.1775 81.155 41.2029 81.376 41.2093 81.4737C41.2188 81.6202 41.2376 81.6534 41.3161 81.6628C41.4143 81.6746 42.8491 81.7748 43.9171 81.8445C44.0576 81.8537 44.2877 81.8691 44.4284 81.8787C44.569 81.8882 45.3507 81.9387 46.1655 81.9907C46.9802 82.0428 47.9234 82.1055 48.2614 82.1302C48.5994 82.155 48.944 82.1763 49.0272 82.1777C49.1105 82.1791 49.7464 82.2193 50.4406 82.2671C51.6075 82.3474 51.7063 82.3467 51.752 82.2573C51.8042 82.1554 51.9667 81.6268 52.4259 80.0653C52.5799 79.542 52.7605 78.9302 52.8275 78.7057C53.0707 77.8897 56.1356 67.5379 56.6041 65.95C56.8688 65.0528 57.1776 64.0122 57.2904 63.6377C57.4032 63.2632 57.5494 62.7733 57.6154 62.549C58.0259 61.153 58.1155 60.8626 58.1373 60.8567C58.162 60.8501 58.1931 61.0306 58.2937 61.7663C58.3246 61.9922 58.3766 62.3614 58.4091 62.5867C58.5048 63.2494 59.1169 65.6563 59.3213 66.1734C59.7897 67.3586 60.0521 67.8789 60.6343 68.7764C60.7713 68.9876 60.9124 69.1976 60.948 69.2432C61.2108 69.5803 61.2999 69.6879 61.5102 69.9219C61.7673 70.2078 62.3438 70.7632 62.5052 70.8804C63.5503 71.6396 64.0603 71.9189 65.0351 72.2657C66.2802 72.7088 68.2572 72.9314 69.5792 72.7773C69.9952 72.7289 72.0561 72.1929 72.3251 72.0633C73.2348 71.6248 73.4787 71.4919 74.012 71.1445C74.2588 70.9836 74.5028 70.819 74.5541 70.7788C74.6055 70.7386 74.6899 70.6741 74.7417 70.6355C74.9978 70.445 76.0613 69.5015 76.2986 69.2543C76.7025 68.8336 77.4581 67.965 77.7349 67.6033C78.1435 67.0692 78.1781 67.0178 78.1641 66.9657C78.1567 66.938 78.1728 66.8292 78.1998 66.7239C78.2268 66.6186 78.2434 66.5118 78.2366 66.4867C78.2299 66.4614 78.2401 66.3411 78.2594 66.2191C78.2787 66.0972 78.3005 65.917 78.3078 65.8186C78.3216 65.6332 78.3372 65.4903 78.3655 65.2898C78.3747 65.2254 78.3927 64.9445 78.4056 64.6656C78.4184 64.3867 78.4333 64.1123 78.4386 64.0558C78.4813 63.5981 78.4471 61.8479 78.3756 60.8425C78.3229 60.0996 78.2519 59.798 77.2541 56.0808C76.3888 52.8568 76.1907 52.165 76.0367 51.8288C75.7771 51.2621 75.7355 51.1832 75.7023 51.1938C75.686 51.199 75.5515 51.5514 75.4031 51.9769C75.1181 52.7947 75.0256 53.042 74.5255 54.322C73.0034 58.2177 71.3025 61.0963 70.0098 61.9645C69.7054 62.1689 69.0745 62.3289 68.7743 62.2778C68.1056 62.164 67.4985 61.5394 67.0639 60.5181C66.8907 60.1112 66.3266 57.9385 66.2373 57.3342C66.0755 56.241 66.0148 55.7476 65.972 55.1767C65.9598 55.0147 65.9382 54.7726 65.924 54.6387C65.9006 54.4176 65.8825 54.1715 65.8485 53.6072C65.8419 53.4988 65.8285 53.2883 65.8188 53.1394C65.809 52.9906 65.7979 52.7682 65.7941 52.6452C65.7904 52.5223 65.7824 52.3329 65.7765 52.2243C65.7369 51.5066 65.7213 50.9022 65.7065 49.5137C65.6973 48.6485 65.6882 47.8622 65.6863 47.7663C65.683 47.5995 65.6839 47.1308 65.6902 45.8992C65.6965 44.683 65.6981 44.4195 65.702 44.0606C65.7042 43.8559 65.6886 43.6483 65.6672 43.5993C65.6343 43.5241 65.2572 43.4876 63.2435 43.365C61.9317 43.2851 60.8401 43.2091 60.8175 43.1961C60.7949 43.1831 60.7284 43.1853 60.6698 43.201C60.6112 43.2167 60.5446 43.212 60.5218 43.1906C60.499 43.1691 60.4301 43.1651 60.3688 43.1815C60.3074 43.198 60.2385 43.1939 60.2157 43.1724C60.1929 43.151 60.124 43.1469 60.0626 43.1634C60.0013 43.1798 59.9324 43.1757 59.9096 43.1543C59.8868 43.1329 59.8179 43.1288 59.7565 43.1452C59.6952 43.1617 59.6263 43.1576 59.6035 43.1362C59.5807 43.1147 59.5118 43.1107 59.4504 43.1271C59.389 43.1435 59.3202 43.1395 59.2974 43.118C59.2745 43.0966 59.2057 43.0925 59.1443 43.109C59.0829 43.1254 59.0141 43.1213 58.9913 43.0999C58.9684 43.0785 58.8996 43.0744 58.8382 43.0908C58.7768 43.1073 58.708 43.1032 58.6851 43.0818C58.6623 43.0603 58.5935 43.0562 58.5321 43.0727C58.4707 43.0891 58.4018 43.085 58.379 43.0636C58.3562 43.0422 58.2903 43.0373 58.2326 43.0528C58.1748 43.0683 58.1026 43.0679 58.0721 43.0519C58.0416 43.036 57.1676 42.9739 56.1298 42.914C55.092 42.854 54.2165 42.8027 54.1844 42.7998C54.1522 42.797 54.1 42.865 54.0683 42.951Z" fill="#292929"/>
<defs>
<linearGradient id="paint0_linear_351_3661" x1="124.706" y1="21.8511" x2="124.084" y2="107.433" gradientUnits="userSpaceOnUse">
<stop stop-color="#A89016"/>
<stop offset="0.15625" stop-color="#866B0A"/>
<stop offset="0.758565" stop-color="#83700F"/>
<stop offset="0.833789" stop-color="#867906"/>
<stop offset="0.91676" stop-color="#AC9519"/>
<stop offset="1" stop-color="#A79223"/>
</linearGradient>
<linearGradient id="paint1_linear_351_3661" x1="137.633" y1="39.2025" x2="137.633" y2="124.415" gradientUnits="userSpaceOnUse">
<stop stop-color="#DFBE48"/>
<stop offset="0.831735" stop-color="#F8D453"/>
<stop offset="1" stop-color="#BE9B1D"/>
</linearGradient>
<linearGradient id="paint2_linear_351_3661" x1="167.065" y1="41.8938" x2="108.612" y2="122.036" gradientUnits="userSpaceOnUse">
<stop offset="0.557292" stop-color="#5F4F18"/>
<stop offset="0.925805" stop-color="#A88A1F"/>
<stop offset="1" stop-color="#665413"/>
</linearGradient>
<linearGradient id="paint3_linear_351_3661" x1="110.217" y1="25.6113" x2="137.453" y2="64.8439" gradientUnits="userSpaceOnUse">
<stop stop-color="white" stop-opacity="0.4"/>
<stop offset="1" stop-color="white" stop-opacity="0"/>
</linearGradient>
</defs>
</svg>
