<?xml version="1.0" encoding="iso-8859-1"?>
<!-- Generator: Adobe Illustrator 19.0.0, SVG Export Plug-In . SVG Version: 6.00 Build 0)  -->
<svg version="1.1" id="Layer_1" xmlns="http://www.w3.org/2000/svg" xmlns:xlink="http://www.w3.org/1999/xlink" x="0px" y="0px"
	 viewBox="0 0 512 512" style="enable-background:new 0 0 512 512;" xml:space="preserve">
<g transform="translate(1)">
	<g>
		<g>
			<path d="M331.314,215.893c-9.387,9.387-25.6,9.387-35.84,0c-7.68-7.68-18.773-11.947-29.867-11.947s-22.187,4.267-29.867,11.947
				c-3.413,3.413-3.413,8.533,0,11.947s8.533,3.413,11.947,0c9.387-9.387,26.453-9.387,35.84,0
				c7.68,7.68,18.773,11.947,29.867,11.947s22.187-4.267,29.867-11.947c3.413-3.413,3.413-8.533,0-11.947
				C339.847,212.48,334.727,212.48,331.314,215.893z"/>
			<path d="M392.754,155.307c-9.387,9.387-25.6,9.387-35.84,0c-16.213-16.213-44.373-16.213-60.587,0
				c-3.413,3.413-3.413,8.533,0,11.947s8.533,3.413,11.947,0c9.387-9.387,25.6-10.24,35.84,0c7.68,7.68,18.773,11.947,29.867,11.947
				s22.187-4.267,30.72-11.947c3.413-3.413,3.413-8.533,0-11.947C401.287,151.893,396.167,151.893,392.754,155.307z"/>
			<path d="M442.247,100.693c-9.387,1.707-18.773-0.853-24.747-6.827c-13.653-13.653-35.84-16.213-52.053-6.827
				c-4.267,2.56-5.973,7.68-3.413,11.947s7.68,5.973,11.947,3.413c9.387-5.12,23.04-3.413,30.72,4.267
				c7.68,7.68,18.773,11.947,29.867,11.947c3.413,0,6.827,0,11.947-1.707c4.267-0.853,6.827-5.973,5.973-10.24
				C451.634,102.4,446.514,99.84,442.247,100.693z"/>
			<path d="M272.434,275.627c-9.387,9.387-26.453,9.387-35.84,0c-16.213-16.213-44.373-16.213-60.587,0
				c-3.413,3.413-3.413,8.533,0,11.947c3.413,3.413,8.533,3.413,11.947,0c9.387-10.24,25.6-10.24,35.84,0
				c7.68,7.68,18.773,11.947,29.867,11.947c10.24,0,21.333-3.413,30.72-11.947c3.413-3.413,3.413-8.533,0-11.947
				S275.847,272.213,272.434,275.627z"/>
			<path d="M211.847,336.213c-9.387,10.24-25.6,10.24-35.84,0c-16.213-16.213-44.373-16.213-60.587,0
				c-3.413,3.413-3.413,8.533,0,11.947c3.413,3.413,8.533,3.413,11.947,0c9.387-9.387,25.6-9.387,35.84,0
				c7.68,7.68,18.773,11.947,29.867,11.947s22.187-4.267,30.72-11.947c3.413-3.413,3.413-8.533,0-11.947
				S215.261,332.8,211.847,336.213z"/>
			<path d="M145.287,401.067c-9.387,5.12-23.04,3.413-30.72-4.267c-10.24-10.24-26.453-14.507-40.96-11.093
				c-4.267,0.853-6.827,5.973-5.973,10.24s5.973,6.827,10.24,5.973c9.387-1.707,18.773,0.853,24.747,6.827
				c7.68,7.68,18.773,11.947,29.867,11.947c7.68,0,15.36-1.707,21.333-4.267c4.267-2.56,5.973-7.68,3.413-11.947
				S149.554,398.507,145.287,401.067z"/>
			<path d="M500.274,10.24c-5.12-5.973-12.8-9.387-23.04-10.24c0,0-0.853,0-1.707,0c-57.173,0-181.76,97.28-280.747,195.413
				C76.167,312.32-0.633,422.4-0.633,474.453c0,11.093,3.413,20.48,10.24,27.307S25.821,512,37.767,512
				c23.04,0,54.613-13.653,94.72-40.107c52.053-34.133,115.2-87.893,182.613-156.16C373.127,258.56,555.741,66.56,500.274,10.24z
				 M303.154,303.787c-65.707,65.707-129.707,120.32-180.053,153.6c-51.2,33.28-87.893,45.227-101.547,31.573
				c-3.413-2.56-5.12-7.68-5.12-14.507c0-47.787,76.8-154.453,190.293-267.093S430.301,17.067,474.674,17.067
				c0.853,0,1.707,0,1.707,0c5.973,0,9.387,1.707,11.093,4.267l0.853,0.853C516.487,50.347,440.541,166.4,303.154,303.787z"/>
		</g>
	</g>
</g>
<g>
</g>
<g>
</g>
<g>
</g>
<g>
</g>
<g>
</g>
<g>
</g>
<g>
</g>
<g>
</g>
<g>
</g>
<g>
</g>
<g>
</g>
<g>
</g>
<g>
</g>
<g>
</g>
<g>
</g>
</svg>
